<svg width="162" height="160" viewBox="0 0 162 160" fill="none" xmlns="http://www.w3.org/2000/svg">
<path fill-rule="evenodd" clip-rule="evenodd" d="M68.7163 8.33879C57.6769 4.72793 47.035 10.2777 40.7461 22.958L38.8908 26.7143C38.4642 27.5981 38.5803 28.66 39.232 29.3937C43.333 34.1814 45.4602 36.6332 46.4237 37.9365C47.0941 38.805 48.7127 43.5258 52.4419 36.1479C58.1742 24.7075 60.4925 22.6834 64.8817 25.1376C68.3697 27.1147 71.2061 33.2197 73.9839 44.8286C96.8316 140.139 95.4051 128.596 95.2715 129.914C95.241 130.151 93.6307 130.882 91.6828 131.618C80.5978 135.655 80.7466 135.433 86.315 140.133C88.3133 141.81 91.322 144.52 92.9476 146.101C105.13 157.849 108.198 160.001 110.146 158.05C111.361 156.834 112.263 152.45 118.942 137.485C126.194 121.247 124.638 122.213 112.498 125.657C110.784 118.962 111.495 120.269 107.338 104.223C105.876 98.5716 103.935 90.0908 103.026 85.4613C93.7325 37.4305 82.8592 12.9868 68.7163 8.33879ZM67.7859 13.0445C67.085 14.8435 65.2357 21.4526 64.9837 21.5405C64.5466 21.6648 59.29 21.181 59.2032 21.0134C59.1329 20.8118 60.9365 10.9116 61.117 10.5377C62.0535 8.6847 68.5359 11.1434 67.7859 13.0445ZM72.6323 15.5935C76.146 19.4272 75.6221 19.3839 72.8175 26.4958C69.4503 23.4873 67.7719 22.9704 68.0766 21.8183C68.3649 20.7001 70.0386 14.8025 70.1453 13.9739C70.1839 13.1124 70.6609 13.4265 72.6323 15.5935ZM56.2731 21.5266C55.5547 22.0598 51.599 25.3054 51.6893 24.5107C52.7885 13.7257 52.6481 14.5379 58.296 11.6065C57.3983 15.0289 57.2915 15.8574 56.2731 21.5266ZM80.2493 28.0299C81.6042 30.7795 81.6336 30.4582 79.6728 33.9122L78.0414 36.7709L74.9401 29.8255C76.3886 25.9566 76.568 25.4983 77.4563 22.6163C78.4268 24.4259 79.0515 25.6496 80.2493 28.0299ZM82.3921 52.2405C82.2913 52.2757 81.5998 49.8883 80.8497 46.9277L79.4924 41.5785L82.7166 34.2919L86.0722 43.749C83.4094 50.1332 82.5433 52.1878 82.3921 52.2405ZM47.9636 30.9263C47.6658 33.8003 47.6084 33.3116 43.9399 29.2774C44.2529 28.716 48.1475 21.0826 48.5319 20.8071C48.8331 20.6173 48.5835 24.52 47.9636 30.9263ZM89.2508 53.8332C91.3395 60.7927 91.4262 59.7449 88.5783 64.9499L86.1921 69.372L84.8969 63.6338C83.4751 57.2896 83.4177 58.0162 86.057 51.1598C86.7087 49.4627 87.3146 48.1207 87.4166 48.1699C87.501 48.1687 88.3472 50.7565 89.2508 53.8332ZM93.5278 70.0634C95.034 76.4064 95.1078 75.6457 92.3477 81.1027L89.9323 85.846C87.8354 77.0804 87.9233 77.3324 87.4169 74.9086L89.5921 69.8818C92.2268 63.9032 92.058 63.9056 93.5278 70.0634ZM98.9218 93.7898C97.0185 97.7326 94.3476 103.526 94.037 103.041C93.7264 102.556 91.7479 93.8052 91.3892 92.2909C93.0675 87.9462 95.7865 80.7511 95.9271 81.1542C95.9974 81.3558 97.8036 88.64 98.9218 93.7898ZM101.921 105.548C102.861 108.809 102.881 109.028 102.037 110.256C101.574 110.954 100.52 112.792 99.7472 114.305C98.9749 115.818 98.2483 116.976 98.1627 116.893C97.974 116.676 95.658 109.146 95.1798 107.532C97.3948 102.943 97.757 102.28 99.6638 97.3751C99.6638 97.3751 101.406 103.664 101.921 105.548ZM105.078 117.675L105.919 121.14L101.201 127.789L99.2879 121.334L101.457 117.1C103.921 112.171 103.718 112.157 105.078 117.675ZM116.261 131.665C114.824 133.947 112.938 137.856 110.187 143.988C105.539 154.484 106.285 153.546 104.114 151.533C100.899 148.556 102.282 150.901 111.378 134.923L114.541 129.325L116.338 128.642C118.705 127.731 118.721 127.697 116.261 131.665ZM109.904 130.943C109.56 131.657 99.2613 146.131 99.0257 146.185C98.1022 146.536 95.5893 143.06 96.1519 142.241C96.4988 141.697 107.22 126.085 107.22 126.085C109.541 131.522 110.364 129.991 109.904 130.943ZM94.8063 136.521C93.9929 137.511 93.1163 138.806 92.8209 139.418C92.5092 140.064 92.1259 140.424 91.854 140.292C91.4462 140.096 89.4994 138.485 88.6438 137.653C88.3531 137.387 89.5099 136.814 92.1974 135.848C96.8515 134.281 96.6651 134.233 94.8063 136.521Z" fill="url(#paint0_linear_8_427)"/>
<defs>
<linearGradient id="paint0_linear_8_427" x1="106.462" y1="26.3938" x2="54.9626" y2="133.074" gradientUnits="userSpaceOnUse">
<stop stop-color="#FFD600"/>
<stop offset="1" stop-color="#8600F0"/>
</linearGradient>
</defs>
</svg>
