<svg width="182" height="101" viewBox="0 0 182 101" fill="none" xmlns="http://www.w3.org/2000/svg">
<path fill-rule="evenodd" clip-rule="evenodd" d="M172.485 12.1116C167.443 10.7369 155.565 5.38433 151.637 2.76559C148.99 0.972264 148.081 0.531836 147.427 0.724347C144.299 1.50062 148.679 5.81611 157.226 10.4709L162.677 13.4199L159.514 13.1095C147.255 11.9043 140.579 12.744 142.538 15.3251C144.581 18.0487 145.343 18.2651 152.606 18.5258C156.361 18.6649 159.563 18.7904 159.645 18.8304C159.728 18.8705 158.607 19.4992 157.078 20.2355C149.166 24.0437 146.49 28.3011 151.825 28.5441C153.672 28.6243 158.595 26.9854 164.818 24.2438C167.49 23.0424 172.228 21.3646 175.314 20.4658C184.837 17.6431 184.009 15.2536 172.485 12.1116ZM130.097 12.6043C125.664 12.3914 114.995 13.7923 114.206 14.6838C111.638 17.6683 117.35 20.1835 124.311 19.1762C126.952 18.7751 130.966 18.2754 133.26 18.063C140.819 17.2946 138.306 13.0177 130.097 12.6043ZM103.881 15.5884C98.9402 15.7918 88.3822 19.5907 87.8081 21.2999C86.88 24.2646 91.8154 25.3329 96.9185 23.3227L104.655 20.2963C107.024 19.4062 108.959 18.3571 109.017 18.0282C109.149 17.1242 105.808 15.5035 103.881 15.5884ZM80.1231 25.1671C75.9429 25.4843 66.8785 35.7668 67.3559 39.6169C67.9894 44.5111 75.256 39.9314 84.4326 28.7859C85.6056 27.4181 82.664 24.9722 80.1231 25.1671ZM89.8251 35.4274C83.6781 34.2302 82.4502 34.4502 83.3978 36.4897C84.1342 38.019 86.7962 39.361 89.6497 39.5725C93.8586 39.9318 102.914 45.852 104.298 44.9944C107.107 43.1965 97.6163 36.9123 89.8251 35.4274ZM107.035 49.1247C106.751 49.3948 106.273 50.5902 106.042 51.8031C105.03 56.307 100.078 62.3149 95.6108 64.3789C92.1845 65.9792 91.9019 66.3518 93.186 67.3822C98.5112 71.8505 109.373 64.3763 111.066 55.1059C111.641 51.8173 108.799 47.4831 107.035 49.1247ZM54.842 37.6765C49.7078 37.1234 35.3058 46.958 37.2462 49.6828C39.0191 52.1226 42.4554 51.3426 50.1734 46.778C53.4521 44.8513 56.9347 42.8197 57.9539 42.2946C60.766 40.8043 58.9283 38.0783 54.842 37.6765ZM65.4734 46.7567C61.8509 47.3953 64.1647 55.5508 69.6286 61.3094C73.0769 64.9185 84.1907 69.7475 85.7113 68.2934C87.0294 67.0468 85.764 65.8726 80.4224 63.435C74.627 60.7774 72.8198 58.9327 71.8436 54.5348C70.4562 48.3576 68.6658 46.1642 65.4734 46.7567ZM27.2486 55.6903C23.4761 55.7975 12.3824 69.53 13.8314 72.3223C16.1193 76.6427 20.0308 74.4623 26.0349 65.5498C31.5749 57.2787 31.8002 55.5531 27.2486 55.6903ZM9.80572 80.3084C6.85222 80.3032 -0.610365 95.7965 1.0012 98.4638C3.99305 103.329 7.52947 100.661 11.3478 90.7909C14.8273 81.7243 14.6461 80.3113 9.80572 80.3084Z" fill="url(#paint0_linear_9_430)"/>
<defs>
<linearGradient id="paint0_linear_9_430" x1="124.272" y1="-12.2613" x2="56.8863" y2="126.692" gradientUnits="userSpaceOnUse">
<stop stop-color="#8600F0"/>
<stop offset="1" stop-color="#FFD600"/>
</linearGradient>
</defs>
</svg>
