<svg width="585" height="390" viewBox="0 0 585 390" fill="none" xmlns="http://www.w3.org/2000/svg">
<path d="M563.94 197.909L559.096 189.478L551.522 190.593L545.282 182.731L548.504 174.931L540.056 169.322L533.746 175.679L525.439 174.229L522.077 164.455L511.976 165.524L511.407 174.065L503.88 177.84L495.916 172.201L487.835 178.09L492.032 187.13L487.227 194.376L478.499 193.908L476.213 204.68L484.52 207.878L485.238 216.926L476.658 221.879L480.776 231.239L489.692 229.85L495.596 236.668L492.476 245.17L500.643 250.934L507.016 244.039L515.861 246.433L518.614 255.559L528.442 254.896L529.706 246.698L538.138 241.862L545.033 247.361L553.753 240.864L549.331 233.22L553.628 225.521L562.474 226.169L565.18 216.146L557.591 212.043L556.585 202.909L563.94 197.909ZM529.698 227.401C526.29 229.357 522.379 230.259 518.459 229.992C514.539 229.725 510.786 228.302 507.675 225.902C504.563 223.502 502.234 220.234 500.98 216.51C499.726 212.786 499.605 208.774 500.631 204.981C501.658 201.188 503.786 197.785 506.747 195.202C509.707 192.619 513.367 190.971 517.264 190.468C521.161 189.965 525.12 190.629 528.639 192.375C532.159 194.122 535.082 196.873 537.038 200.281C539.659 204.851 540.358 210.275 538.982 215.36C537.605 220.446 534.266 224.777 529.698 227.401Z" fill="#F5F5F5"/>
<path d="M103.623 297.43C118.568 284.513 120.065 263.258 117.491 244.546C117.062 241.426 117.062 238.087 115.292 235.49C113.521 232.892 109.832 231.379 107.172 232.986C104.957 234.32 104.224 237.136 103.155 239.507C101.727 242.679 99.4315 245.383 96.5328 247.307C94.6374 248.547 92.235 249.436 90.1524 248.555C87.2976 247.338 86.5956 243.641 86.2524 240.521L84.6066 223.08C84.3024 219.96 83.9826 216.785 82.7112 213.923C81.4398 211.06 79.0062 208.541 75.9564 208.018C72.9066 207.496 69.42 209.578 69.108 212.698C68.9754 214.001 69.3732 215.288 69.42 216.598C69.4668 217.909 69.0144 219.398 67.86 219.882C66.7056 220.366 65.3172 219.625 64.2876 218.806C60.7464 215.99 58.149 212.16 55.7076 208.338C53.2662 204.516 50.8482 200.6 47.5722 197.465C44.2962 194.329 39.9828 192.005 35.49 192.239C30.9972 192.473 26.5278 195.694 25.857 200.195C25.1862 204.695 28.197 208.892 31.356 212.16C36.0373 217.012 41.397 221.161 47.268 224.476C48.321 225.069 49.4598 225.716 49.959 226.816C50.8482 228.821 49.0932 231.091 47.112 231.988C44.8656 232.994 42.3228 233.017 39.9204 233.548C37.518 234.078 34.9986 235.427 34.32 237.814C33.3684 241.137 36.3792 244.195 39.2262 246.113C44.9399 249.955 51.2724 252.783 57.9462 254.475C60.2862 255.076 62.8134 255.567 64.8258 256.987C66.8382 258.406 68.2422 261.089 67.353 263.398C66.4638 265.707 63.6714 266.713 61.2222 266.518C58.773 266.323 56.4954 265.239 54.1164 264.615C49.6626 263.437 44.1636 264.303 41.8002 268.289C40.2402 270.91 40.443 274.31 41.652 277.118C42.861 279.926 44.967 282.235 47.1744 284.333C54.8652 291.681 64.3344 297.258 74.6148 299.676C84.8952 302.094 94.2084 302.078 103.709 297.453" fill="#F5F5F5"/>
<path d="M105.3 311.321C103.535 302.705 100.943 294.278 97.5624 286.159C93.3908 276.254 88.6536 266.597 83.3742 257.236C81.9858 254.74 80.6156 252.278 79.2636 249.85C77.9142 247.424 76.5726 245.021 75.114 242.752C72.3052 238.404 69.2585 234.214 65.988 230.201C62.868 226.348 59.8104 222.799 56.9088 219.508C54.0072 216.216 51.2226 213.205 48.5862 210.6C44.4341 206.407 39.9587 202.547 35.2014 199.056C33.5166 197.831 32.1828 196.919 31.3014 196.31C30.8646 196.022 30.5214 195.796 30.2562 195.632C30.1432 195.549 30.0232 195.476 29.8974 195.413C29.9953 195.515 30.1054 195.604 30.225 195.679L31.239 196.404C32.1282 197.044 33.4386 197.964 35.139 199.243C39.8424 202.781 44.2748 206.666 48.399 210.865C51.012 213.509 53.7654 216.536 56.6514 219.827C59.5374 223.119 62.595 226.684 65.676 230.537C68.9227 234.544 71.9484 238.726 74.7396 243.064C76.1826 245.318 77.5164 247.705 78.8736 250.13C80.2308 252.556 81.588 255.029 82.9764 257.517C88.2439 266.864 92.9833 276.499 97.1724 286.377C100.553 294.459 103.165 302.843 104.972 311.415" fill="#E0E0E0"/>
<path d="M74.9424 242.752C75.0502 242.304 75.1078 241.847 75.114 241.387C75.192 240.513 75.2543 239.234 75.3167 237.658C75.4337 234.538 75.4493 230.162 75.4571 225.358C75.4649 220.553 75.5351 216.216 75.7067 213.08C75.7847 211.52 75.8627 210.241 75.9251 209.36C75.9781 208.906 75.9781 208.448 75.9251 207.995C75.792 208.432 75.7057 208.881 75.6678 209.336C75.5352 210.21 75.3948 211.481 75.27 213.049C74.9892 216.169 74.8487 220.553 74.8487 225.358C74.8487 230.162 74.8487 234.374 74.8487 237.65C74.8487 239.132 74.8487 240.38 74.8487 241.379C74.8323 241.838 74.8636 242.298 74.9424 242.752Z" fill="#E0E0E0"/>
<path d="M34.1016 239.39C34.6408 239.448 35.1847 239.448 35.724 239.39C36.7614 239.39 38.259 239.343 40.1154 239.39C43.8282 239.39 48.9528 239.616 54.6 240.084C60.2472 240.552 65.3328 241.223 68.9988 241.8C70.8396 242.081 72.3216 242.338 73.3434 242.518C73.8558 242.638 74.3778 242.714 74.9034 242.744C74.4004 242.541 73.8775 242.392 73.3434 242.299C72.3294 242.05 70.8552 241.722 69.0222 241.394C65.3562 240.708 60.2628 239.99 54.6 239.507C49.7684 239.083 44.9182 238.906 40.0686 238.976C38.2044 238.976 36.699 239.101 35.6616 239.187C35.1369 239.211 34.6151 239.279 34.1016 239.39Z" fill="#E0E0E0"/>
<path d="M96.993 285.48C97.0888 285.318 97.1647 285.145 97.2192 284.965C97.3596 284.552 97.539 284.053 97.7496 283.444C98.2098 282.118 98.826 280.192 99.5514 277.797C101.018 273.008 102.82 266.323 104.715 258.929C106.61 251.534 108.358 244.842 109.715 240.029C110.386 237.689 110.932 235.763 111.337 234.335C111.517 233.711 111.657 233.197 111.774 232.775C111.841 232.598 111.878 232.411 111.883 232.222C111.792 232.387 111.719 232.563 111.665 232.744C111.517 233.158 111.337 233.657 111.127 234.265C110.666 235.583 110.05 237.518 109.325 239.912C107.866 244.702 106.057 251.378 104.161 258.781C102.266 266.183 100.519 272.867 99.1614 277.68C98.4984 280.02 97.9446 281.947 97.539 283.374L97.11 284.934C97.0498 285.111 97.0106 285.294 96.993 285.48Z" fill="#E0E0E0"/>
<path d="M41.9796 273.78C42.152 273.863 42.3362 273.918 42.5256 273.944L44.1324 274.303L50.0214 275.566C54.9978 276.627 61.854 278.179 69.42 279.903C76.986 281.627 83.8734 283.109 88.8732 284.068C91.3692 284.552 93.3972 284.926 94.8012 285.152L96.4236 285.402C96.6104 285.444 96.802 285.459 96.993 285.449C96.8159 285.372 96.6299 285.317 96.4392 285.285L94.8792 284.926L88.92 283.694C83.9436 282.625 77.0874 281.081 69.5136 279.357C61.9398 277.633 55.0992 276.12 50.0994 275.184C47.6034 274.7 45.5754 274.334 44.1714 274.108L42.549 273.85C42.3624 273.806 42.1714 273.782 41.9796 273.78Z" fill="#E0E0E0"/>
<path d="M457.79 167.934C458.586 167.385 459.342 166.781 460.052 166.124C460.862 165.335 461.548 164.428 462.088 163.433C463.411 161.068 463.869 158.315 463.382 155.649C462.896 152.982 461.494 150.569 459.42 148.824C458.57 148.093 457.612 147.499 456.581 147.061C455.515 146.585 454.38 146.283 453.219 146.164C450.765 145.882 448.286 146.393 446.144 147.623C444.002 148.853 442.31 150.736 441.316 152.997C440.386 155.1 440.095 157.43 440.482 159.697C440.838 161.746 441.735 163.663 443.079 165.251C444.152 166.51 445.478 167.528 446.971 168.239C448.465 168.95 450.091 169.338 451.745 169.377C452.876 169.414 454.007 169.28 455.099 168.979C456.027 168.702 456.932 168.353 457.805 167.934C457.805 167.934 457.759 167.981 457.649 168.043L457.15 168.316C456.887 168.472 456.611 168.602 456.323 168.706C455.942 168.877 455.548 169.017 455.146 169.127C454.044 169.462 452.896 169.623 451.745 169.603C450.049 169.591 448.375 169.215 446.836 168.502C445.297 167.789 443.928 166.755 442.822 165.469C441.425 163.842 440.491 161.87 440.115 159.76C439.905 158.622 439.871 157.46 440.014 156.312C440.135 155.112 440.451 153.939 440.95 152.841C441.973 150.498 443.723 148.546 445.94 147.273C448.158 146.001 450.726 145.475 453.266 145.774C455.624 146.042 457.85 147.003 459.662 148.535C461.297 149.924 462.531 151.726 463.234 153.754C463.781 155.358 463.981 157.06 463.821 158.748C463.661 160.435 463.145 162.07 462.306 163.543C461.743 164.546 461.024 165.454 460.177 166.234C459.879 166.52 459.558 166.78 459.217 167.014C458.976 167.212 458.714 167.384 458.437 167.528L457.954 167.817C457.86 167.911 457.798 167.942 457.79 167.934Z" fill="#E0E0E0"/>
<path d="M478.14 150.4L477.875 150.595L477.095 151.164L473.842 153.41V153.348C474.014 154.822 474.224 156.647 474.466 158.808L474.419 158.738L478.943 161.171H479.014V161.249C478.538 163.043 478 165.056 477.454 167.209V167.31H477.36L472.103 166.936L472.228 166.865L469.56 171.444V171.304C470.379 172.715 471.268 174.268 472.189 175.867L472.259 175.984L472.15 176.062L466.97 179.962L466.877 180.032L466.775 179.954L462.673 176.686H462.86L457.852 179.572L457.938 179.447C457.712 180.952 457.454 182.621 457.158 184.322V184.462H457.08L451.238 184.868H451.09L451.043 184.727L449.405 179.267L449.537 179.4L444.28 177.98L444.475 177.926L440.684 182.021L440.567 182.153L440.427 182.052L435.568 178.628L435.443 178.534L435.497 178.394C436.075 176.834 436.699 175.079 437.33 173.339L437.369 173.542L433.859 169.486L434.039 169.556L428.743 170.383H428.587L428.524 170.235C427.744 168.48 426.91 166.585 426.075 164.689L425.997 164.518L426.161 164.424L426.27 164.362C427.947 163.402 429.624 162.443 431.278 161.483L431.176 161.678C431.036 159.869 430.895 158.075 430.755 156.296L430.888 156.468L425.88 154.627L425.724 154.565V154.401C426.187 152.243 426.639 150.108 427.081 147.997V147.833H427.253L432.44 148.106L432.268 148.2L435.131 143.894V144.082C434.281 142.256 433.454 140.47 432.635 138.7L432.572 138.559L432.697 138.473L437.502 134.979L437.611 134.901L437.72 134.971L442.447 138.333H442.268L446.737 136.063L446.644 136.211C446.761 134.464 446.878 132.779 446.987 131.126V130.985H447.127L453.125 130.361H453.258V130.486L455.255 136.297L455.138 136.196L460.075 137.069H459.943L463.702 133.302L463.78 133.224L463.874 133.279L468.889 136.625L468.967 136.679V136.773C468.242 138.52 467.618 140.018 467.041 141.453V141.344L470.746 146.024H470.668L475.176 145.384H475.215V145.423L477.36 149.237L477.875 150.166C477.992 150.368 478.039 150.462 478.039 150.462C478.039 150.462 477.968 150.361 477.844 150.158C477.719 149.955 477.539 149.635 477.298 149.237L475.106 145.486H475.168L470.668 146.164H470.621V146.125L466.885 141.445V141.398V141.336C467.462 139.94 468.07 138.434 468.788 136.656L468.835 136.796L463.804 133.481H463.967C462.797 134.675 461.573 135.915 460.223 137.272L460.177 137.327H460.099L455.224 136.5H455.138V136.414C454.49 134.558 453.827 132.631 453.125 130.603L453.297 130.712L447.291 131.352L447.447 131.196C447.338 132.85 447.229 134.534 447.112 136.282V136.375L447.026 136.422L442.556 138.7L442.455 138.746L442.369 138.684L437.58 135.283H437.798L433.001 138.785L433.064 138.551L435.56 143.926L435.607 144.027L435.544 144.113L432.689 148.426L432.627 148.52H432.518L427.323 148.247L427.526 148.091C427.079 150.197 426.629 152.331 426.176 154.495L426.052 154.261L430.989 156.164L431.106 156.211V156.335C431.246 158.114 431.387 159.908 431.527 161.717V161.842L431.41 161.912L426.403 164.783L426.293 164.853L426.379 164.596L428.821 170.141L428.61 170.024L433.906 169.205H434.015L434.093 169.283C435.302 170.68 436.496 172.068 437.603 173.339L437.681 173.433V173.542C437.042 175.282 436.418 177.005 435.841 178.589L435.77 178.363L440.622 181.795H440.365L444.155 177.7L444.233 177.614H444.35L449.608 179.041H449.709V179.143C450.271 181.03 450.832 182.887 451.339 184.603L451.152 184.47L456.994 184.08L456.83 184.236C457.096 182.536 457.353 180.866 457.61 179.361V179.275L457.681 179.236L462.696 176.366L462.79 176.311L462.883 176.381L466.978 179.657H466.783L471.97 175.804V175.999C471.05 174.439 470.161 172.879 469.357 171.428L469.318 171.358L469.357 171.288L471.916 166.717L471.962 166.647H472.04L477.298 167.045L477.173 167.131C477.758 164.978 478.312 162.973 478.803 161.179L478.85 161.296L474.349 158.839V158.792L473.772 153.332V153.293L477.04 151.125L477.883 150.571L478.14 150.4Z" fill="#E0E0E0"/>
<path d="M542.412 313.303C542.412 313.42 431.301 313.505 294.271 313.505C157.24 313.505 46.1058 313.42 46.1058 313.303C46.1058 313.186 157.193 313.1 294.271 313.1C431.348 313.1 542.412 313.193 542.412 313.303Z" fill="#263238"/>
<path d="M521.438 205.834L478.538 313.139H358.02L396.318 204.36C396.453 203.975 396.705 203.642 397.037 203.406C397.369 203.17 397.767 203.043 398.174 203.042L519.605 203.12C519.928 203.119 520.247 203.198 520.533 203.35C520.819 203.501 521.063 203.721 521.244 203.989C521.425 204.257 521.538 204.566 521.571 204.887C521.605 205.209 521.559 205.534 521.438 205.834Z" fill="#263238"/>
<path d="M514.8 208.931L475.418 305.066C475.332 305.272 475.187 305.449 475.001 305.572C474.815 305.696 474.596 305.761 474.373 305.76H364.634C364.456 305.764 364.28 305.725 364.121 305.645C363.961 305.566 363.824 305.449 363.719 305.305C363.615 305.161 363.547 304.993 363.522 304.817C363.496 304.641 363.514 304.461 363.574 304.294L398.494 208.159C398.573 207.943 398.716 207.757 398.905 207.625C399.093 207.494 399.318 207.424 399.547 207.425H513.786C513.965 207.427 514.141 207.472 514.298 207.556C514.456 207.641 514.59 207.762 514.69 207.911C514.79 208.059 514.852 208.229 514.871 208.407C514.89 208.585 514.866 208.765 514.8 208.931Z" fill="#455A64"/>
<path d="M478.514 313.31H477.446H314.792V305.76H474.068L478.514 313.31Z" fill="#263238"/>
<path d="M354.206 209.999C354.206 209.999 350.906 249.218 343.801 251.129C324.457 256.324 302.328 252.478 294.559 250.949C293.686 250.169 292.679 249.296 291.541 248.173C290.576 247.195 289.785 246.061 289.201 244.819C288.392 243.298 287.797 241.673 287.43 239.99C287.243 238.43 285.285 237.884 284.591 239.14C283.897 240.396 283.608 245.193 286.213 249.561C286.328 249.836 286.381 250.132 286.369 250.43C286.358 250.728 286.282 251.019 286.147 251.285C286.012 251.55 285.821 251.783 285.588 251.968C285.354 252.152 285.083 252.284 284.794 252.353C281.51 253.57 269.935 257.166 268.063 258.047C266.401 258.827 264.794 260.247 266.542 260.536C268.289 260.824 277.852 259.444 277.852 259.444C277.852 259.444 265.286 261.004 265.598 262.813C265.808 264.069 269.194 264.67 277.399 262.813C277.399 262.813 267.056 264.163 265.98 265.247C263.539 267.696 275.995 266.191 275.995 266.191C267.275 267.322 267.368 266.869 267.275 268.063C267.205 268.96 269.178 269.318 273.967 269.373C277.867 269.42 281.861 270.247 287.773 270.644C287.773 270.644 362.536 291.79 372.793 258.89C378.339 241.153 378.37 234.406 380.289 222.784" fill="#FFBE9D"/>
<path d="M281.229 265.637C281.229 265.855 278.6 266.315 275.285 266.659C271.97 267.002 269.272 267.111 269.264 266.885C269.256 266.659 271.908 266.206 275.207 265.863C278.507 265.52 281.198 265.418 281.229 265.637Z" fill="#A36957"/>
<path d="M281.151 262.244C281.151 262.462 278.374 263.11 274.911 263.687C271.448 264.264 268.546 264.56 268.507 264.35C268.468 264.139 271.276 263.484 274.747 262.899C278.218 262.314 281.112 262.025 281.151 262.244Z" fill="#A36957"/>
<path d="M281.042 258.718C281.081 258.937 278.437 259.592 275.137 260.185C271.838 260.777 269.123 261.082 269.084 260.871C269.045 260.66 271.69 259.99 274.989 259.397C278.288 258.804 281.003 258.5 281.042 258.718Z" fill="#A36957"/>
<path d="M451.23 276.939L456.089 305.245H380.281L383.183 283.249L451.23 276.939Z" fill="#263238"/>
<path d="M361.92 179.72C361.92 179.72 350.899 212.815 351.608 214.133L375.859 219.757L361.92 179.72Z" fill="#8600F0"/>
<path opacity="0.2" d="M361.92 179.72C361.92 179.72 350.899 212.815 351.608 214.133L375.859 219.757L361.92 179.72Z" fill="black"/>
<path d="M382.66 241.886L380.32 289.255L453.554 280.964L442.096 235.178C442.096 235.178 434.218 182.091 419.858 176.21C414.881 174.278 409.794 172.639 404.625 171.304C395.477 168.707 385.898 167.996 376.467 169.213L374.993 169.408C372.067 169.73 369.29 170.868 366.979 172.691C364.668 174.514 362.915 176.949 361.92 179.72C361.92 179.72 361.663 196.022 366.67 206.817L382.66 241.886Z" fill="#8600F0"/>
<path d="M400 304.348C399.891 304.348 399.727 300.503 399.641 295.768C399.555 291.034 399.571 287.188 399.641 287.188C399.711 287.188 399.922 291.041 400.008 295.768C400.094 300.495 400.141 304.348 400 304.348Z" fill="#455A64"/>
<path d="M404.04 289.31C404.04 289.31 404.118 289.185 404.36 289.099C404.578 289.038 404.808 289.029 405.03 289.073C405.253 289.117 405.462 289.212 405.64 289.352C405.819 289.492 405.962 289.672 406.058 289.877C406.154 290.083 406.2 290.308 406.193 290.534C406.184 290.878 406.072 291.212 405.87 291.49C405.668 291.769 405.386 291.979 405.062 292.094C404.737 292.187 404.394 292.188 404.069 292.097C403.744 292.006 403.45 291.827 403.221 291.58C403.04 291.382 402.905 291.146 402.828 290.89C402.751 290.633 402.734 290.362 402.776 290.098C402.94 289.193 403.494 288.889 403.502 288.935C403.276 289.299 403.127 289.705 403.065 290.129C403.046 290.367 403.084 290.606 403.176 290.827C403.269 291.047 403.413 291.242 403.596 291.395C403.78 291.548 403.997 291.654 404.231 291.705C404.464 291.757 404.706 291.751 404.937 291.689C405.18 291.599 405.392 291.442 405.549 291.236C405.707 291.03 405.803 290.784 405.826 290.527C405.84 290.314 405.794 290.102 405.693 289.915C405.593 289.727 405.441 289.572 405.257 289.466C404.886 289.26 404.451 289.204 404.04 289.31Z" fill="#455A64"/>
<path d="M452.439 293.943C452.35 294.03 452.25 294.106 452.143 294.169C451.86 294.381 451.566 294.576 451.261 294.754C450.143 295.428 448.956 295.98 447.72 296.4C443.621 297.835 439.165 297.89 435.032 296.556C430.898 295.222 427.315 292.573 424.827 289.013C424.073 287.954 423.435 286.816 422.924 285.62C422.729 285.199 422.627 284.84 422.542 284.63C422.456 284.419 422.432 284.279 422.448 284.271C422.464 284.263 422.674 284.731 423.064 285.55C424.465 288.43 426.503 290.953 429.023 292.929C432.71 295.85 437.328 297.34 442.026 297.125C443.932 297.052 445.82 296.716 447.634 296.127C448.859 295.735 450.045 295.228 451.175 294.614C451.582 294.364 452.004 294.14 452.439 293.943Z" fill="#455A64"/>
<path d="M393.307 200.772C393.042 201.081 392.749 201.365 392.434 201.622C391.612 202.366 390.739 203.052 389.821 203.674C388.453 204.636 386.875 205.259 385.219 205.491C383.173 205.608 381.131 205.197 379.291 204.298C377.317 203.432 375.547 202.426 373.831 201.802C372.329 201.191 370.7 200.96 369.088 201.131C368.004 201.252 366.969 201.652 366.085 202.293C365.477 202.761 365.219 203.12 365.188 203.073C365.23 202.976 365.288 202.886 365.36 202.808C365.546 202.567 365.758 202.348 365.992 202.153C366.869 201.439 367.928 200.983 369.049 200.834C370.709 200.616 372.397 200.823 373.955 201.435C375.726 202.051 377.512 203.057 379.454 203.908C381.233 204.785 383.206 205.196 385.187 205.101C386.793 204.896 388.329 204.32 389.672 203.416C390.596 202.82 391.486 202.174 392.34 201.482C392.644 201.221 392.967 200.983 393.307 200.772Z" fill="#FAFAFA"/>
<path d="M374.096 182.247C373.709 182.744 373.233 183.164 372.692 183.487C370.15 185.214 367.04 185.893 364.01 185.383C363.383 185.315 362.775 185.13 362.216 184.837C362.216 184.774 362.926 184.969 364.049 185.102C367.006 185.437 369.989 184.784 372.536 183.245C373.511 182.66 374.049 182.192 374.096 182.247Z" fill="#FAFAFA"/>
<path d="M440.31 226.871C440.152 227.026 439.982 227.169 439.803 227.3C439.281 227.674 438.718 227.987 438.126 228.236C435.897 229.041 433.498 229.259 431.161 228.868C429.558 228.628 427.969 228.3 426.403 227.885C424.611 227.4 422.786 227.048 420.943 226.832C418.92 226.659 416.882 226.806 414.905 227.269C412.77 227.781 410.682 228.475 408.665 229.343C404.508 231.067 400.577 232.947 396.692 233.75C393.258 234.468 389.704 234.378 386.311 233.485C384.038 232.917 381.805 232.201 379.626 231.34L377.848 230.63C377.641 230.555 377.44 230.464 377.247 230.357C377.463 230.405 377.674 230.47 377.879 230.552L379.681 231.192C381.87 231.993 384.105 232.665 386.373 233.204C389.729 234.043 393.231 234.105 396.614 233.384C400.436 232.604 404.336 230.701 408.509 228.961C410.541 228.087 412.644 227.39 414.796 226.879C416.815 226.413 418.895 226.271 420.958 226.457C422.803 226.688 424.628 227.056 426.418 227.557C427.96 227.98 429.522 228.324 431.098 228.587C433.395 228.997 435.757 228.825 437.97 228.088C438.795 227.776 439.581 227.368 440.31 226.871Z" fill="#FAFAFA"/>
<path d="M382.27 255.84C382.27 255.84 382.27 255.785 382.372 255.692L382.707 255.263C383.169 254.748 383.693 254.292 384.267 253.906C385.179 253.291 386.182 252.822 387.239 252.517C388.64 252.118 390.096 251.939 391.552 251.987C394.813 252.034 398.486 253.383 402.34 255.107C404.345 256.03 406.4 256.842 408.494 257.54C410.725 258.303 413.081 258.634 415.436 258.515C417.777 258.263 420.038 257.513 422.066 256.316C424.086 255.224 425.927 253.976 427.791 252.954C429.541 251.93 431.442 251.188 433.423 250.754C435.553 250.377 437.74 250.478 439.826 251.051C441.912 251.625 443.844 252.656 445.481 254.069C446.195 254.671 446.827 255.363 447.361 256.129C447.31 256.092 447.265 256.047 447.229 255.996C447.127 255.895 447.01 255.762 446.87 255.606C446.682 255.384 446.478 255.176 446.261 254.982C445.984 254.704 445.69 254.443 445.38 254.202C443.433 252.606 441.111 251.532 438.633 251.082C436.931 250.774 435.187 250.774 433.485 251.082C431.545 251.518 429.687 252.258 427.978 253.274C426.13 254.296 424.297 255.551 422.261 256.659C420.185 257.89 417.867 258.659 415.467 258.913C413.062 259.031 410.656 258.692 408.377 257.915C406.272 257.204 404.207 256.378 402.191 255.442C398.354 253.711 394.735 252.361 391.537 252.268C390.109 252.209 388.681 252.367 387.301 252.736C386.26 253.016 385.268 253.455 384.361 254.038C383.589 254.546 382.886 255.152 382.27 255.84Z" fill="#FAFAFA"/>
<path d="M448.414 280.862C448.047 279.975 447.584 279.13 447.034 278.343C445.429 276.259 443.207 274.736 440.684 273.991C438.967 273.44 437.166 273.199 435.365 273.281C433.295 273.379 431.247 273.749 429.273 274.381C427.084 275.077 424.947 275.927 422.877 276.923C420.709 277.93 418.493 279.061 416.153 280.082C413.9 281.111 411.548 281.909 409.133 282.461C406.854 282.913 404.526 283.065 402.207 282.914C398.289 282.589 394.439 281.693 390.78 280.254C387.66 279.076 385.211 277.914 383.518 277.134L381.592 276.198L381.092 275.941L380.929 275.839C380.994 275.85 381.057 275.871 381.116 275.902L381.623 276.12L383.588 276.994C385.289 277.774 387.754 278.842 390.881 279.989C394.519 281.373 398.335 282.232 402.215 282.539C404.498 282.682 406.79 282.525 409.032 282.071C411.446 281.533 413.798 280.748 416.052 279.731C418.392 278.717 420.592 277.594 422.776 276.611C424.863 275.612 427.018 274.762 429.226 274.069C431.231 273.436 433.311 273.074 435.412 272.992C437.264 272.923 439.113 273.188 440.872 273.772C443.432 274.558 445.672 276.147 447.26 278.304C447.67 278.896 448.013 279.531 448.282 280.199C448.352 280.418 448.414 280.589 448.461 280.73C448.449 280.775 448.434 280.82 448.414 280.862Z" fill="#FAFAFA"/>
<g opacity="0.2">
<path d="M392.597 287.687C400.031 287.391 407.472 284.911 413.158 280.114C420.958 273.546 424.788 263.234 425.638 253.079C426.488 242.923 424.679 232.799 422.877 222.737C415.916 232.489 410.26 243.109 406.052 254.327C403.291 261.69 400.865 269.732 394.75 274.669C392.566 276.432 389.961 277.75 388.253 279.973C386.545 282.196 386.178 285.862 388.448 287.516L390.46 288.171" fill="black"/>
</g>
<path d="M338.887 288.077C340.368 288.796 341.944 289.302 343.567 289.583C344.848 289.86 346.166 289.918 347.467 289.754C348.075 289.676 348.644 289.591 349.19 289.505C351.702 289.099 354.049 288 355.969 286.33C364.416 278.99 387.286 255.793 391.365 250.544C396.279 244.234 397.66 202.519 397.66 202.519L425.1 207.012C425.1 207.012 424.609 237.073 417.862 260.465C413.564 275.34 361.702 305.939 361.639 305.971C357.794 310.183 353.473 314.746 350.813 316.969C345.283 321.602 344.861 321.118 344.432 320.377C343.278 318.404 353.847 311.86 350.758 311.945C347.669 312.031 338.762 321.454 337.639 319.34C336.172 316.579 347.373 309.933 348.278 309.301C349.183 308.669 348.278 307.336 347.498 307.952C346.367 308.833 334.238 317.827 332.787 315.136C332.007 313.638 334.792 312.429 334.792 312.429C334.792 312.429 346.749 304.855 346.016 303.607C345.283 302.359 338.107 306.548 335.782 308.139C333.458 309.73 331.82 309.262 331.96 307.671C332.062 306.587 339.043 301.54 341.375 300.019C343.707 298.498 350.158 294.442 345.345 293.857C340.532 293.272 337.061 290.995 336.547 289.731C336.032 288.467 337.6 287.282 338.887 288.077Z" fill="#FFBE9D"/>
<path d="M407.995 175.336C410.578 174.807 413.253 174.936 415.773 175.711C418.294 176.487 420.578 177.884 422.417 179.774C425.615 183.105 428.828 188.682 428.555 197.519C428.017 214.765 426.66 220.646 426.66 220.646L392.847 219.476L394.173 190.499C394.173 190.499 396.786 177.7 407.995 175.336Z" fill="#8600F0"/>
<path opacity="0.2" d="M407.995 175.336C410.578 174.807 413.253 174.936 415.773 175.711C418.294 176.487 420.578 177.884 422.417 179.774C425.615 183.105 428.875 189.134 428.602 197.956C428.072 215.202 426.66 220.646 426.66 220.646L392.847 219.476L394.22 190.944C394.22 190.944 396.786 177.7 407.995 175.336Z" fill="black"/>
<path d="M427.939 210.6C427.939 210.639 427.549 210.257 426.8 209.726C425.718 209.003 424.516 208.475 423.251 208.166C421.376 207.697 419.422 207.631 417.518 207.971C415.209 208.514 412.967 209.312 410.834 210.35C408.67 211.395 406.417 212.243 404.102 212.885C402.181 213.337 400.193 213.433 398.237 213.166C396.915 212.994 395.639 212.57 394.477 211.918C394.164 211.738 393.867 211.532 393.588 211.302C393.484 211.231 393.39 211.147 393.307 211.052C393.307 211.013 393.728 211.349 394.547 211.778C395.718 212.357 396.979 212.732 398.276 212.885C400.196 213.104 402.14 212.98 404.017 212.519C406.303 211.864 408.529 211.013 410.67 209.976C412.835 208.929 415.111 208.131 417.456 207.597C419.41 207.269 421.411 207.37 423.322 207.893C424.608 208.237 425.818 208.822 426.886 209.617C427.166 209.837 427.427 210.079 427.666 210.343C427.766 210.419 427.858 210.505 427.939 210.6Z" fill="#FAFAFA"/>
<path d="M426.559 186.186C426.2 186.375 425.827 186.534 425.443 186.662C425.084 186.81 424.663 186.958 424.102 187.122C423.54 187.286 422.971 187.473 422.292 187.621C420.706 188.01 419.095 188.294 417.472 188.471C415.479 188.67 413.475 188.743 411.473 188.69C409.474 188.612 407.483 188.393 405.514 188.035C403.908 187.732 402.327 187.304 400.787 186.755C400.191 186.557 399.608 186.322 399.04 186.053C398.601 185.873 398.173 185.665 397.761 185.429C397.395 185.257 397.047 185.048 396.724 184.805C397.105 184.937 397.476 185.098 397.831 185.289C398.252 185.498 398.684 185.683 399.126 185.843C399.699 186.088 400.285 186.301 400.881 186.482C402.412 186.986 403.975 187.382 405.561 187.668C407.514 188.001 409.486 188.207 411.466 188.284C413.449 188.34 415.433 188.277 417.409 188.097C419.02 187.931 420.619 187.67 422.198 187.317C422.885 187.184 423.485 187.028 424.016 186.88C424.546 186.732 425.006 186.615 425.373 186.49C425.758 186.351 426.155 186.249 426.559 186.186Z" fill="#FAFAFA"/>
<path d="M390.156 137.81C390.109 138.253 390.189 138.699 390.387 139.097C390.585 139.496 390.892 139.829 391.273 140.059C391.653 140.289 392.092 140.406 392.536 140.396C392.981 140.386 393.413 140.249 393.783 140.002C395.171 139.004 395.031 136.882 394.477 135.322C393.923 133.762 393.081 132.031 393.533 130.385C393.884 129.129 394.922 128.201 395.678 127.14C396.343 126.213 396.784 125.145 396.967 124.019C397.149 122.893 397.069 121.74 396.731 120.65C396.363 119.571 395.705 118.614 394.831 117.883C393.956 117.151 392.898 116.673 391.771 116.501C389.47 116.236 386.849 117.335 384.961 115.994C383.588 115.027 383.214 113.139 382.075 111.899C380.312 109.98 377.231 110.113 374.728 110.861C372.224 111.61 369.759 112.843 367.154 112.609C364.985 112.421 363.035 111.228 360.914 110.635C358.625 110.003 356.197 110.1 353.965 110.911C351.734 111.723 349.811 113.21 348.464 115.164C347.116 117.119 346.411 119.445 346.446 121.819C346.481 124.193 347.255 126.497 348.66 128.411C349.623 129.83 351.057 130.864 352.708 131.329" fill="#263238"/>
<path d="M386.334 186.748C382.954 187.367 379.467 186.622 376.636 184.674C373.805 182.727 371.862 179.736 371.233 176.358C370.453 172.341 369.86 168.948 369.86 168.948C369.86 168.948 359.416 169.104 357.552 158.948C355.688 148.793 353.605 126.485 353.605 126.485L353.473 125.135C364.393 118.061 378.433 118.568 389.945 124.66L390.289 126.758L396.895 172.528C397.263 175.795 396.377 179.08 394.417 181.719C392.457 184.359 389.568 186.156 386.334 186.748Z" fill="#FFBE9D"/>
<path d="M374.93 151.226L368.402 154.393C368.997 155.054 369.8 155.492 370.678 155.634C371.557 155.776 372.457 155.613 373.23 155.173C376.085 153.52 374.93 151.226 374.93 151.226Z" fill="white"/>
<path d="M369.814 168.808C374.527 168.093 378.922 165.994 382.442 162.778C382.442 162.778 380.554 170.633 370.243 171.444L369.814 168.808Z" fill="#EB996E"/>
<path d="M390.78 133.606C390.991 133.497 398.268 131.75 398.51 140.533C398.752 149.315 389.797 146.656 389.774 146.406C389.75 146.156 390.78 133.606 390.78 133.606Z" fill="#FFBE9D"/>
<path d="M392.41 143.247C392.449 143.247 392.566 143.348 392.831 143.465C393.2 143.611 393.61 143.611 393.978 143.465C394.891 143.099 395.632 141.601 395.632 140.018C395.633 139.263 395.468 138.517 395.148 137.834C395.057 137.563 394.901 137.317 394.695 137.119C394.488 136.921 394.237 136.775 393.962 136.695C393.786 136.654 393.6 136.676 393.438 136.757C393.275 136.838 393.147 136.974 393.073 137.14C392.956 137.389 393.019 137.561 392.972 137.576C392.925 137.592 392.777 137.436 392.839 137.069C392.886 136.85 393.004 136.653 393.175 136.508C393.41 136.321 393.71 136.234 394.009 136.266C394.373 136.326 394.715 136.479 395.002 136.71C395.289 136.941 395.511 137.242 395.647 137.584C396.042 138.335 396.248 139.17 396.248 140.018C396.248 141.788 395.374 143.473 394.118 143.871C393.885 143.947 393.637 143.97 393.394 143.936C393.151 143.902 392.918 143.813 392.714 143.676C392.434 143.458 392.379 143.263 392.41 143.247Z" fill="#EB996E"/>
<path d="M351.842 131.04C351.842 131.04 358.418 133.177 365.882 128.076C370.789 124.722 376.756 122.616 378.253 123.474C379.751 124.332 380.78 129.714 386.217 130.603C386.217 130.603 387.27 141.008 391.349 140.072C395.429 139.136 390.655 123.458 390.655 123.458L380.273 117.936L368.963 117.367L356.99 120.385L350.657 125.518L351.842 131.04Z" fill="#263238"/>
<path d="M390.218 114.66C388.664 114.944 387.25 115.741 386.201 116.922C386.526 116.153 387.097 115.514 387.824 115.105C388.551 114.695 389.393 114.539 390.218 114.66Z" fill="#263238"/>
<path d="M385.414 111.205C385.909 112.202 386.15 113.306 386.116 114.418C386.13 115.216 385.998 116.009 385.726 116.758C385.638 117.076 385.475 117.368 385.25 117.608C385.504 116.57 385.659 115.51 385.71 114.442C385.679 112.663 385.32 111.236 385.414 111.205Z" fill="#263238"/>
<path d="M356.725 141.274C356.743 141.67 356.918 142.044 357.21 142.312C357.502 142.581 357.888 142.724 358.285 142.709C358.476 142.713 358.665 142.679 358.842 142.609C359.019 142.54 359.181 142.435 359.317 142.302C359.454 142.17 359.563 142.011 359.637 141.836C359.712 141.66 359.751 141.472 359.752 141.281C359.735 140.893 359.568 140.527 359.285 140.26C359.003 139.993 358.627 139.848 358.238 139.854C358.045 139.842 357.85 139.87 357.668 139.936C357.485 140.002 357.318 140.105 357.176 140.238C357.034 140.371 356.921 140.531 356.844 140.709C356.766 140.887 356.726 141.079 356.725 141.274Z" fill="#263238"/>
<path d="M356.686 140.127C356.881 140.314 357.965 139.417 359.572 139.347C361.179 139.277 362.396 140.018 362.56 139.807C362.638 139.721 362.435 139.378 361.904 139.027C361.185 138.583 360.346 138.37 359.502 138.419C358.667 138.455 357.866 138.759 357.217 139.285C356.741 139.682 356.593 140.041 356.686 140.127Z" fill="#263238"/>
<path d="M372.528 140.447C372.562 140.831 372.743 141.187 373.034 141.44C373.325 141.693 373.703 141.824 374.088 141.804C374.279 141.801 374.467 141.76 374.642 141.683C374.816 141.606 374.974 141.495 375.105 141.356C375.236 141.217 375.337 141.053 375.404 140.874C375.47 140.695 375.5 140.505 375.492 140.314C375.458 139.93 375.277 139.574 374.986 139.321C374.695 139.068 374.317 138.937 373.932 138.957C373.741 138.959 373.552 138.999 373.377 139.076C373.202 139.153 373.044 139.264 372.913 139.403C372.782 139.542 372.68 139.706 372.614 139.886C372.548 140.065 372.519 140.256 372.528 140.447Z" fill="#263238"/>
<path d="M372.06 139.285C372.263 139.456 373.308 138.505 374.907 138.364C376.506 138.224 377.762 138.895 377.918 138.684C378.074 138.473 377.77 138.255 377.224 137.904C376.483 137.491 375.633 137.317 374.79 137.405C373.96 137.488 373.177 137.829 372.551 138.38C372.122 138.84 371.982 139.207 372.06 139.285Z" fill="#263238"/>
<path d="M367.435 151.71C366.566 151.529 365.677 151.458 364.79 151.499C364.377 151.499 364.01 151.453 363.886 151.18C363.812 150.76 363.867 150.328 364.042 149.939C364.33 148.918 364.634 147.841 364.946 146.71C366.194 142.124 367.052 138.364 366.865 138.31C366.678 138.255 365.524 141.96 364.26 146.539C363.964 147.67 363.675 148.746 363.41 149.783C363.199 150.3 363.179 150.876 363.355 151.406C363.43 151.542 363.533 151.661 363.658 151.752C363.784 151.844 363.928 151.907 364.081 151.936C364.314 151.966 364.55 151.966 364.783 151.936C365.673 151.977 366.564 151.901 367.435 151.71Z" fill="#263238"/>
<path d="M371.093 134.503C371.296 134.924 372.871 134.566 374.767 134.605C376.662 134.644 378.238 135.018 378.448 134.605C378.542 134.41 378.238 134.027 377.582 133.669C376.716 133.23 375.762 132.996 374.791 132.982C373.821 132.969 372.86 133.177 371.982 133.591C371.319 133.934 371.007 134.308 371.093 134.503Z" fill="#263238"/>
<path d="M356.46 135.829C356.78 136.165 357.841 135.681 359.167 135.533C360.493 135.385 361.639 135.533 361.858 135.135C361.951 134.94 361.741 134.589 361.218 134.293C360.518 133.948 359.731 133.817 358.957 133.917C358.183 134.017 357.456 134.343 356.866 134.854C356.46 135.275 356.327 135.665 356.46 135.829Z" fill="#263238"/>
<path d="M73.5462 208.798L115.346 313.318H232.674L195.398 207.394C195.268 207.018 195.024 206.692 194.699 206.461C194.375 206.23 193.986 206.106 193.588 206.107L75.3246 206.185C75.0136 206.187 74.7076 206.264 74.4331 206.41C74.1586 206.557 73.9237 206.767 73.7487 207.024C73.5737 207.281 73.4639 207.577 73.4286 207.886C73.3933 208.195 73.4337 208.508 73.5462 208.798Z" fill="#263238"/>
<path d="M79.9812 211.653L118.365 305.253C118.448 305.453 118.589 305.623 118.77 305.743C118.951 305.862 119.163 305.925 119.379 305.924H226.239C226.411 305.926 226.582 305.886 226.736 305.808C226.89 305.731 227.023 305.617 227.124 305.477C227.225 305.337 227.291 305.175 227.316 305.004C227.341 304.834 227.325 304.659 227.269 304.496L193.261 210.896C193.181 210.687 193.04 210.508 192.856 210.381C192.673 210.254 192.454 210.186 192.231 210.187H80.9952C80.8186 210.183 80.6439 210.223 80.4866 210.303C80.3293 210.384 80.1944 210.502 80.094 210.647C79.9935 210.792 79.9306 210.96 79.911 211.136C79.8913 211.311 79.9154 211.489 79.9812 211.653Z" fill="#455A64"/>
<path d="M115.346 313.31H116.392H274.794V305.955H119.683L115.346 313.31Z" fill="#263238"/>
<path d="M298.74 211.52C298.74 211.52 301.665 207.722 299.692 203.346C297.718 198.97 292.406 193.986 292.406 193.986C290.846 193.588 292.906 184.774 293.803 181.849C294.7 178.924 293.693 177.341 292.094 177.949C291.01 178.386 288.054 187.255 287.235 190.156C286.79 191.716 285.956 194.836 284.942 196.568C284.099 197.98 283.132 198.424 282.157 196.209C280.012 191.326 276.565 188.362 275.137 188.198C273.71 188.035 272.961 190.063 274.186 191.17C275.394 192.502 276.415 193.992 277.22 195.601C277.923 196.865 278.408 198.239 278.655 199.664C278.866 200.897 279.014 202.004 279.131 202.987C279.398 205.438 279.377 207.912 279.068 210.358L249.6 245.068L243.188 221.567L242.596 219.757L217.308 229.164C216.528 229.359 222.768 247.767 226.668 259.202C227.626 262.001 229.172 264.563 231.202 266.716C233.232 268.868 235.7 270.562 238.438 271.682C242.741 273.443 247.512 273.709 251.984 272.436C256.456 271.163 260.371 268.425 263.102 264.662L294.559 218.993L293.881 218.533L294.52 218.821L298.74 211.52Z" fill="#B78876"/>
<path d="M294.793 196.256C294.745 196.551 294.661 196.839 294.544 197.114L293.709 199.399L292.438 202.8C292.225 203.5 291.901 204.161 291.478 204.758C291.201 205.085 290.817 205.304 290.394 205.374C290.168 205.403 289.938 205.374 289.726 205.29C289.515 205.205 289.328 205.068 289.185 204.89C288.909 204.555 288.75 204.139 288.733 203.705C288.724 203.311 288.768 202.917 288.865 202.535C289.045 201.809 289.232 201.123 289.419 200.468C289.801 199.157 290.199 198.003 290.566 197.044C290.932 196.084 291.26 195.312 291.502 194.789C291.607 194.512 291.748 194.25 291.923 194.009C291.86 194.301 291.769 194.586 291.65 194.86C291.455 195.398 291.166 196.178 290.87 197.145C290.573 198.112 290.168 199.274 289.809 200.577C289.63 201.232 289.45 201.919 289.286 202.628C289.166 202.958 289.125 203.311 289.167 203.66C289.209 204.008 289.333 204.342 289.528 204.633C289.627 204.759 289.756 204.857 289.904 204.918C290.051 204.98 290.212 205.002 290.371 204.984C290.697 204.926 290.995 204.758 291.213 204.508C291.608 203.945 291.913 203.324 292.118 202.667L293.475 199.329L294.427 197.09C294.52 196.8 294.643 196.521 294.793 196.256Z" fill="#AA6550"/>
<path d="M297.773 199.68C297.738 199.949 297.665 200.212 297.554 200.46C297.391 200.936 297.133 201.614 296.774 202.457C296.416 203.299 296.072 204.298 295.62 205.405C295.399 206.033 294.991 206.577 294.45 206.965C294.143 207.176 293.777 207.285 293.405 207.277C293.012 207.257 292.642 207.09 292.367 206.809C292.119 206.542 291.933 206.223 291.822 205.875C291.711 205.527 291.679 205.159 291.728 204.797C291.797 204.165 291.925 203.541 292.11 202.933C292.391 201.909 292.74 200.906 293.155 199.93C293.506 199.103 293.834 198.448 294.068 197.995C294.173 197.755 294.309 197.529 294.473 197.324C294.536 197.324 294.06 198.362 293.42 200.039C293.049 201.019 292.731 202.019 292.469 203.034C292.305 203.622 292.19 204.222 292.126 204.828C292.085 205.131 292.11 205.44 292.2 205.732C292.291 206.024 292.443 206.293 292.648 206.521C292.855 206.718 293.124 206.837 293.408 206.857C293.693 206.877 293.976 206.796 294.208 206.63C294.683 206.286 295.044 205.808 295.246 205.257L296.478 202.348C296.829 201.521 297.125 200.858 297.336 200.398C297.447 200.139 297.594 199.898 297.773 199.68Z" fill="#AA6550"/>
<path d="M299.411 203.151C299.285 203.909 299.086 204.654 298.818 205.374C298.607 206.06 298.373 206.856 298.038 207.753C297.883 208.278 297.527 208.721 297.047 208.985C296.903 209.047 296.748 209.079 296.591 209.079C296.434 209.079 296.279 209.047 296.135 208.985C295.845 208.87 295.599 208.665 295.433 208.4C295.159 207.898 295.05 207.322 295.121 206.755C295.18 205.397 295.529 204.067 296.143 202.855C296.398 202.35 296.704 201.871 297.055 201.427C297.305 201.115 297.469 200.959 297.492 200.975C297.515 200.99 296.977 201.7 296.4 202.979C296.071 203.73 295.827 204.515 295.675 205.319C295.589 205.791 295.537 206.268 295.519 206.747C295.466 207.232 295.555 207.723 295.776 208.159C295.877 208.352 296.046 208.501 296.251 208.577C296.456 208.652 296.682 208.647 296.884 208.564C297.261 208.343 297.54 207.986 297.664 207.566C297.96 206.716 298.241 205.936 298.498 205.226C298.743 204.51 299.048 203.815 299.411 203.151Z" fill="#AA6550"/>
<path d="M289.38 210.678C289.31 210.678 289.38 210.062 289.302 209.118C289.094 206.576 287.905 204.215 285.987 202.535C285.254 201.895 284.723 201.591 284.755 201.536C285.277 201.69 285.759 201.956 286.166 202.316C287.207 203.12 288.055 204.147 288.648 205.321C289.24 206.496 289.562 207.787 289.591 209.102C289.631 209.637 289.559 210.173 289.38 210.678Z" fill="#AA6550"/>
<path d="M125.58 305.253L201.848 305.643L202.8 292.188L143.302 265.715C138.148 271.955 134.726 279.441 133.38 287.422L125.58 305.253Z" fill="#263238"/>
<path d="M161.593 279.357C161.393 279.642 161.163 279.903 160.906 280.137C160.628 280.436 160.331 280.718 160.017 280.979C159.621 281.346 159.204 281.689 158.769 282.009C158.255 282.414 157.715 282.787 157.154 283.124C156.522 283.53 155.868 283.902 155.197 284.24C152.104 285.803 148.707 286.674 145.244 286.79C144.493 286.83 143.74 286.83 142.99 286.79C142.336 286.76 141.685 286.692 141.04 286.588C140.514 286.517 139.993 286.415 139.48 286.283C139.077 286.209 138.681 286.105 138.294 285.971C137.956 285.895 137.628 285.777 137.319 285.62C137.319 285.535 138.746 286.01 141.11 286.307C141.695 286.369 142.342 286.447 143.036 286.455C143.731 286.463 144.479 286.455 145.259 286.455C148.654 286.276 151.978 285.413 155.033 283.92C155.727 283.561 156.39 283.234 156.983 282.859C157.538 282.53 158.077 282.174 158.597 281.791C160.524 280.387 161.53 279.295 161.593 279.357Z" fill="#455A64"/>
<path d="M182.333 304.122C182.584 303.24 182.891 302.375 183.253 301.532C183.901 299.848 184.712 297.703 185.593 295.339C186.475 292.976 187.34 290.846 188.003 289.162C188.304 288.293 188.669 287.448 189.095 286.634C188.888 287.531 188.612 288.41 188.269 289.263C187.707 290.823 186.904 293.062 185.975 295.503C185.047 297.944 184.166 300.097 183.495 301.657C183.16 302.437 182.879 303.061 182.668 303.49C182.585 303.715 182.472 303.927 182.333 304.122Z" fill="#455A64"/>
<path d="M182.762 286.01C182.324 286.215 181.965 286.558 181.74 286.985C181.632 287.205 181.582 287.448 181.595 287.693C181.607 287.937 181.681 288.174 181.81 288.382C181.959 288.643 182.184 288.853 182.455 288.983C182.726 289.113 183.03 289.158 183.327 289.112C183.624 289.065 183.9 288.929 184.118 288.722C184.336 288.515 184.486 288.247 184.548 287.953C184.607 287.716 184.605 287.468 184.543 287.232C184.48 286.996 184.358 286.779 184.189 286.603C183.842 286.27 183.401 286.052 182.926 285.979C182.926 285.979 183.066 285.901 183.339 285.917C183.734 285.955 184.106 286.125 184.392 286.4C184.617 286.604 184.783 286.864 184.874 287.153C184.964 287.443 184.976 287.751 184.907 288.046C184.837 288.419 184.653 288.761 184.381 289.025C184.109 289.289 183.761 289.462 183.386 289.52C183.011 289.579 182.628 289.519 182.288 289.35C181.949 289.181 181.67 288.911 181.49 288.577C181.336 288.316 181.255 288.018 181.255 287.715C181.255 287.411 181.336 287.114 181.49 286.853C181.678 286.505 181.978 286.23 182.341 286.073C182.598 285.971 182.754 285.987 182.762 286.01Z" fill="#455A64"/>
<path d="M234.343 191.404C234.343 191.404 245.497 224.211 244.865 225.553L222.3 231.738L234.343 191.404Z" fill="#8600F0"/>
<path opacity="0.2" d="M234.343 191.404C234.343 191.404 245.497 224.211 244.865 225.553L222.3 231.738L234.343 191.404Z" fill="black"/>
<path d="M216.06 245.762L208.939 275.972L204.313 292.874L143.278 265.715L162.653 234.515C162.653 234.515 173.261 191.123 188.23 183.105C199.111 177.271 208.354 179.299 209.734 179.299L222.737 181.1C223.025 181.139 223.306 181.186 223.587 181.241C230.521 182.606 235.225 189.088 234.866 196.139C234.585 201.786 233.641 211.341 230.529 218.486C226.356 228.088 216.06 245.762 216.06 245.762Z" fill="#8600F0"/>
<path d="M206.575 286.096L206.131 285.893C205.695 285.691 205.273 285.462 204.867 285.207C203.299 284.227 201.929 282.963 200.827 281.479C199.052 279.128 198.01 276.306 197.831 273.367C197.719 271.524 198.076 269.683 198.869 268.016C199.299 267.102 199.903 266.281 200.647 265.598C201.444 264.876 202.428 264.392 203.486 264.202C204.359 264.113 205.241 264.198 206.081 264.451C206.921 264.704 207.703 265.12 208.382 265.676C209.061 266.232 209.624 266.916 210.038 267.69C210.452 268.463 210.709 269.311 210.795 270.184C210.891 271.451 210.66 272.722 210.124 273.874C209.571 275.082 208.756 276.153 207.739 277.01C206.722 277.866 205.528 278.487 204.243 278.827C201.504 279.515 198.612 279.24 196.053 278.047C193.404 276.775 191.087 274.906 189.283 272.587C188.33 271.42 187.469 270.182 186.709 268.882C185.914 267.554 185.32 266.116 184.946 264.615C184.565 263.08 184.546 261.478 184.891 259.935C185.24 258.337 186.096 256.895 187.333 255.824C187.982 255.296 188.731 254.903 189.535 254.67C190.339 254.437 191.181 254.368 192.013 254.467C192.854 254.56 193.659 254.863 194.353 255.349C195.031 255.854 195.568 256.526 195.913 257.299C196.568 258.863 196.598 260.619 195.998 262.205C195.382 263.734 194.346 265.059 193.011 266.027C190.445 267.807 187.477 268.924 184.373 269.277C181.27 269.629 178.127 269.207 175.227 268.047C172.521 266.886 170.19 264.996 168.496 262.587C166.863 260.305 165.943 257.591 165.851 254.787C165.815 253.44 166.032 252.099 166.491 250.832C166.938 249.594 167.711 248.5 168.73 247.666C169.736 246.878 170.963 246.423 172.24 246.363C172.857 246.324 173.477 246.408 174.062 246.61C174.647 246.813 175.186 247.129 175.648 247.541C176.506 248.367 177.037 249.475 177.146 250.661C177.268 251.779 177.101 252.909 176.662 253.945C175.757 255.837 174.139 257.293 172.162 257.993C170.447 258.641 168.629 258.974 166.795 258.976C163.865 259.014 160.96 258.423 158.278 257.244C156.591 256.504 155.016 255.533 153.598 254.358C153.106 253.952 152.755 253.625 152.529 253.399C152.303 253.172 152.186 253.048 152.186 253.048C152.186 253.048 152.318 253.149 152.56 253.367C152.802 253.586 153.153 253.906 153.644 254.296C157.383 257.259 162.033 258.833 166.803 258.749C168.607 258.739 170.393 258.4 172.076 257.751C172.985 257.388 173.833 256.886 174.587 256.261C175.38 255.611 176.004 254.779 176.405 253.835C176.82 252.851 176.976 251.777 176.857 250.715C176.751 249.603 176.25 248.566 175.445 247.79C175.012 247.41 174.508 247.119 173.962 246.935C173.415 246.75 172.838 246.675 172.263 246.714C171.053 246.77 169.891 247.204 168.94 247.954C167.975 248.755 167.243 249.8 166.819 250.981C166.378 252.205 166.175 253.502 166.218 254.803C166.31 257.54 167.212 260.189 168.808 262.415C170.462 264.772 172.742 266.62 175.391 267.751C178.225 268.884 181.297 269.296 184.33 268.951C187.363 268.605 190.263 267.512 192.769 265.769C194.044 264.847 195.033 263.585 195.624 262.127C196.188 260.642 196.16 258.997 195.546 257.533C195.23 256.817 194.729 256.197 194.095 255.739C193.452 255.307 192.713 255.039 191.942 254.959C191.173 254.875 190.394 254.944 189.651 255.162C188.908 255.38 188.216 255.743 187.613 256.23C186.432 257.243 185.611 258.611 185.273 260.13C184.938 261.619 184.954 263.165 185.32 264.646C186.038 267.61 187.762 270.176 189.579 272.446C191.344 274.72 193.61 276.557 196.201 277.813C198.681 278.973 201.484 279.249 204.142 278.593C205.378 278.27 206.528 277.676 207.507 276.855C208.487 276.033 209.271 275.004 209.804 273.842C210.326 272.747 210.552 271.534 210.46 270.325C210.381 269.493 210.14 268.684 209.749 267.946C209.358 267.207 208.825 266.553 208.181 266.02C207.537 265.488 206.794 265.088 205.996 264.842C205.197 264.597 204.357 264.512 203.525 264.592C202.517 264.769 201.58 265.225 200.819 265.91C200.098 266.573 199.51 267.367 199.087 268.25C198.311 269.875 197.955 271.669 198.05 273.468C198.208 276.373 199.217 279.167 200.951 281.502C202.031 282.985 203.371 284.259 204.906 285.262C205.304 285.52 205.715 285.756 206.138 285.971L206.575 286.096Z" fill="#FAFAFA"/>
<path d="M224.89 227.822C224.89 227.822 224.835 227.768 224.741 227.651L224.328 227.136C223.824 226.452 223.387 225.721 223.025 224.952C221.719 222.074 221.375 218.852 222.043 215.764C222.475 213.617 223.468 211.622 224.921 209.984C225.356 209.538 225.89 209.201 226.481 209.001C226.794 208.9 227.124 208.864 227.451 208.895C227.778 208.926 228.095 209.023 228.384 209.18C228.965 209.512 229.429 210.016 229.71 210.623C229.98 211.238 230.12 211.902 230.123 212.573C230.099 215.367 229.122 218.069 227.354 220.233C226.439 221.383 225.32 222.356 224.055 223.103C222.748 223.893 221.26 224.334 219.734 224.383C218.186 224.395 216.688 223.84 215.522 222.823C214.395 221.855 213.544 220.606 213.057 219.203C212.597 217.864 212.372 216.454 212.394 215.038C212.369 213.685 212.538 212.335 212.893 211.029C213.081 210.39 213.382 209.791 213.782 209.258C214.18 208.713 214.762 208.331 215.42 208.182C216.067 208.057 216.737 208.176 217.3 208.517C217.824 208.844 218.271 209.281 218.611 209.797C218.928 210.276 219.167 210.802 219.32 211.357C219.47 211.898 219.551 212.456 219.562 213.018C219.584 214.068 219.409 215.113 219.047 216.099C218.423 217.79 217.395 219.303 216.052 220.506C215.054 221.406 213.97 222.205 212.815 222.893C211.864 223.462 211.107 223.86 210.592 224.125L210.007 224.422C209.941 224.462 209.87 224.493 209.797 224.515L209.984 224.39L210.553 224.055C211.052 223.766 211.801 223.345 212.729 222.76C213.86 222.055 214.921 221.243 215.896 220.334C217.19 219.144 218.177 217.659 218.774 216.005C219.114 215.05 219.275 214.04 219.25 213.026C219.238 212.497 219.154 211.972 219.001 211.466C218.862 210.933 218.635 210.427 218.33 209.968C218.022 209.493 217.608 209.095 217.121 208.806C216.637 208.506 216.056 208.403 215.498 208.517C214.344 208.751 213.611 209.937 213.244 211.123C212.912 212.395 212.755 213.707 212.776 215.023C212.763 216.394 212.984 217.758 213.431 219.055C213.894 220.388 214.702 221.575 215.771 222.495C216.866 223.449 218.274 223.968 219.726 223.954C221.18 223.901 222.598 223.48 223.844 222.729C225.069 222.007 226.152 221.069 227.042 219.96C228.751 217.867 229.702 215.259 229.741 212.558C229.742 211.938 229.615 211.324 229.367 210.756C229.121 210.217 228.715 209.768 228.205 209.469C227.957 209.335 227.686 209.251 227.406 209.223C227.126 209.195 226.843 209.223 226.574 209.305C226.044 209.493 225.563 209.8 225.17 210.202C223.739 211.794 222.749 213.733 222.3 215.826C221.907 217.543 221.833 219.317 222.082 221.06C222.263 222.378 222.619 223.666 223.142 224.89C223.493 225.654 223.902 226.389 224.367 227.089L224.749 227.627C224.858 227.76 224.897 227.815 224.89 227.822Z" fill="#FAFAFA"/>
<path d="M206.209 218.642C206.209 218.642 206.209 246.379 213.151 249.007C232.034 256.152 254.623 254.506 262.571 253.757C263.523 253.094 264.623 252.283 265.871 251.269L268.499 249.077C268.499 249.077 280.979 251.456 280.792 252.112C280.605 252.767 275.925 254.28 271.105 253.196C270.963 253.461 270.88 253.754 270.863 254.055C270.845 254.355 270.893 254.656 271.002 254.936C271.112 255.216 271.281 255.469 271.498 255.678C271.715 255.886 271.975 256.046 272.259 256.144C275.434 257.704 286.681 262.454 288.467 263.531C290.027 264.49 291.525 266.066 289.747 266.175C287.968 266.284 278.507 263.952 278.507 263.952C278.507 263.952 290.987 266.76 290.472 268.554C290.129 269.794 286.673 270.059 278.624 267.384C278.624 267.384 288.865 269.771 289.84 270.972C292.048 273.671 279.7 270.91 279.7 270.91C288.335 272.922 288.28 272.47 288.28 273.663C288.28 274.568 286.244 274.732 281.44 274.31C277.54 273.967 273.429 274.396 267.454 274.201C267.454 274.201 190.32 287.937 183.3 253.906C179.509 235.552 180.18 228.782 179.4 216.926" fill="#B78876"/>
<path d="M274.466 269.825C274.412 270.036 277.04 270.761 280.332 271.448C283.624 272.134 286.315 272.493 286.354 272.275C286.393 272.056 283.764 271.331 280.496 270.652C277.228 269.974 274.56 269.607 274.466 269.825Z" fill="#AA6550"/>
<path d="M274.888 266.425C274.833 266.643 277.586 267.571 281.034 268.507C284.482 269.443 287.336 270.02 287.391 269.802C287.446 269.584 284.7 268.655 281.245 267.727C277.789 266.799 274.95 266.214 274.888 266.425Z" fill="#AA6550"/>
<path d="M275.34 262.899C275.278 263.117 277.867 264.038 281.12 264.966C284.372 265.894 287.063 266.471 287.126 266.253C287.188 266.035 284.599 265.114 281.346 264.186C278.093 263.258 275.41 262.688 275.34 262.899Z" fill="#AA6550"/>
<path d="M191.981 191.506C189.483 191.287 186.971 191.73 184.697 192.788C182.423 193.846 180.468 195.483 179.026 197.535C176.405 201.201 173.995 207.098 175.18 215.842C177.52 232.908 179.384 238.602 179.384 238.602L210.748 233.633L206.458 205.007C206.458 205.007 202.675 192.582 191.981 191.506Z" fill="#8600F0"/>
<path opacity="0.2" d="M191.981 191.506C189.483 191.287 186.971 191.73 184.697 192.788C182.423 193.846 180.468 195.483 179.026 197.535C176.405 201.201 173.995 207.098 175.18 215.842C177.52 232.908 179.384 238.602 179.384 238.602L210.748 233.633L206.458 205.007C206.458 205.007 202.675 192.582 191.981 191.506Z" fill="black"/>
<path d="M271.003 249.6C270.778 249.591 270.553 249.562 270.332 249.514C269.896 249.444 269.24 249.311 268.421 249.194C267.977 249.231 267.553 249.4 267.205 249.678C266.754 249.985 266.324 250.321 265.918 250.684C264.925 251.579 263.985 252.529 263.102 253.531C260.673 254.244 258.16 254.627 255.629 254.67C252.651 254.705 249.672 254.582 246.706 254.303C239.515 253.796 232.978 253.399 228.283 252.743C225.943 252.431 224.047 252.104 222.752 251.831C222.097 251.706 221.606 251.573 221.263 251.495C221.087 251.462 220.914 251.412 220.748 251.347C220.927 251.349 221.105 251.373 221.278 251.417L222.776 251.675C224.078 251.901 225.974 252.182 228.322 252.455C233.002 253.032 239.53 253.391 246.737 253.898C249.857 254.14 252.86 254.358 255.622 254.288C258.12 254.258 260.603 253.901 263.008 253.227L262.938 253.274C263.84 252.273 264.804 251.33 265.824 250.45C266.244 250.082 266.692 249.748 267.166 249.452C267.554 249.153 268.026 248.984 268.515 248.968C269.357 249.124 269.981 249.28 270.418 249.374C270.62 249.431 270.816 249.506 271.003 249.6Z" fill="#AA6550"/>
<path d="M208.595 217.659C208.518 217.692 208.437 217.716 208.354 217.729L207.628 217.885L206.435 218.002C205.885 218.015 205.335 217.991 204.789 217.932C202.34 217.656 200.032 216.648 198.167 215.038C197.354 214.364 196.642 213.575 196.053 212.698C195.38 211.739 194.886 210.666 194.594 209.531C194.443 208.92 194.393 208.287 194.446 207.659C194.494 206.985 194.75 206.342 195.179 205.819C195.418 205.558 195.707 205.349 196.029 205.203C196.35 205.057 196.698 204.977 197.051 204.968C197.761 204.968 198.46 205.142 199.087 205.475C200.377 206.183 201.415 207.273 202.059 208.595C202.745 209.964 203.052 211.491 202.948 213.018C202.857 214.617 202.283 216.151 201.302 217.417C200.265 218.731 198.912 219.761 197.37 220.412C195.827 221.063 194.146 221.312 192.481 221.138C190.826 220.918 189.235 220.353 187.814 219.478C186.392 218.603 185.17 217.438 184.228 216.06C183.274 214.782 182.674 213.276 182.489 211.692C182.403 210.902 182.493 210.103 182.754 209.352C183.019 208.629 183.452 207.979 184.018 207.457C184.564 206.93 185.258 206.582 186.007 206.458C186.738 206.344 187.487 206.467 188.144 206.809C188.758 207.136 189.294 207.593 189.715 208.148C190.135 208.703 190.429 209.343 190.577 210.023C190.866 211.267 190.866 212.561 190.577 213.806C190.315 214.946 189.864 216.035 189.244 217.027C188.312 218.526 186.998 219.749 185.436 220.572C183.875 221.394 182.122 221.786 180.359 221.707C179.406 221.677 178.462 221.506 177.559 221.2C177.244 221.1 176.939 220.972 176.647 220.818C176.647 220.818 176.966 220.943 177.59 221.122C178.489 221.39 179.421 221.532 180.359 221.543C181.844 221.578 183.317 221.283 184.673 220.678C186.464 219.866 187.97 218.534 188.994 216.856C189.594 215.895 190.026 214.84 190.273 213.736C190.546 212.539 190.546 211.297 190.273 210.101C190.135 209.471 189.861 208.879 189.47 208.365C189.079 207.852 188.582 207.43 188.011 207.129C187.419 206.822 186.744 206.712 186.085 206.817C185.41 206.937 184.785 207.255 184.291 207.73C183.774 208.213 183.379 208.812 183.136 209.477C182.903 210.166 182.82 210.898 182.894 211.622C183.087 213.136 183.664 214.575 184.571 215.803C185.477 217.136 186.652 218.265 188.021 219.115C189.39 219.966 190.923 220.519 192.52 220.74C194.116 220.909 195.729 220.671 197.208 220.05C198.688 219.428 199.986 218.442 200.983 217.183C201.879 215.989 202.423 214.568 202.554 213.081C202.685 211.594 202.397 210.099 201.724 208.767C201.407 208.143 201.005 207.565 200.53 207.051C200.063 206.557 199.521 206.141 198.923 205.819C198.351 205.507 197.711 205.343 197.059 205.343C196.753 205.346 196.451 205.411 196.172 205.536C195.893 205.661 195.643 205.842 195.437 206.068C195.049 206.534 194.818 207.11 194.774 207.714C194.721 208.307 194.763 208.905 194.899 209.485C195.176 210.583 195.646 211.623 196.287 212.558C196.856 213.429 197.544 214.217 198.331 214.898C199.028 215.503 199.792 216.027 200.608 216.458C201.917 217.158 203.341 217.618 204.812 217.815C206.074 217.959 207.35 217.907 208.595 217.659Z" fill="#FAFAFA"/>
<path d="M192.098 131.134C191.53 129.531 190.527 128.118 189.2 127.054C187.873 125.991 186.276 125.318 184.588 125.112C182.9 124.906 181.188 125.175 179.645 125.889C178.101 126.603 176.787 127.733 175.851 129.152C174.665 130.946 174.158 133.052 173.41 135.119C172.661 137.186 171.561 139.191 169.666 140.213C167.45 141.414 164.533 140.993 162.521 142.553C160.274 144.23 160.181 147.935 162.1 150.01C164.018 152.084 167.255 152.537 169.9 151.499C169.261 153.139 168.9 154.873 168.831 156.632C168.805 157.514 168.996 158.388 169.388 159.178C169.779 159.969 170.36 160.651 171.077 161.164C171.864 161.585 172.745 161.797 173.636 161.781C174.528 161.764 175.401 161.52 176.171 161.07C177.705 160.155 179.023 158.918 180.032 157.443C180.284 158.683 180.718 159.879 181.319 160.992C181.623 161.546 182.043 162.028 182.551 162.405C183.058 162.782 183.641 163.045 184.259 163.176C185.033 163.243 185.81 163.097 186.507 162.755C187.204 162.413 187.794 161.887 188.214 161.234C189.036 159.912 189.525 158.41 189.641 156.858C190.093 153.046 189.844 149.184 188.908 145.462C188.323 143.075 187.496 140.634 187.957 138.224C188.417 135.814 190.788 133.544 193.136 134.277" fill="#263238"/>
<path d="M161.351 147.584C161.472 147.669 161.606 147.732 161.749 147.771C162.143 147.914 162.547 148.032 162.958 148.122C164.858 148.525 166.828 148.458 168.697 147.928C170.565 147.398 172.277 146.421 173.683 145.08C174.676 144.13 175.504 143.02 176.132 141.796C176.77 140.477 177.232 139.079 177.505 137.639C177.758 136.242 178.14 134.871 178.643 133.544C179.126 132.343 179.937 131.302 180.983 130.541C181.874 129.9 182.893 129.46 183.971 129.251C185.048 129.042 186.158 129.07 187.223 129.332C188.676 129.708 190.015 130.434 191.123 131.446C191.903 132.163 192.262 132.662 192.309 132.623C192.356 132.584 192.254 132.475 192.098 132.233C191.865 131.89 191.605 131.567 191.318 131.266C190.224 130.15 188.855 129.343 187.348 128.926C186.214 128.613 185.024 128.555 183.864 128.756C182.704 128.957 181.603 129.412 180.64 130.088C179.5 130.905 178.613 132.027 178.082 133.325C177.551 134.686 177.152 136.094 176.888 137.53C176.628 138.916 176.19 140.264 175.586 141.539C174.785 143.112 173.644 144.488 172.247 145.567C170.849 146.646 169.23 147.402 167.505 147.779C166.028 148.094 164.506 148.142 163.012 147.919C161.944 147.716 161.366 147.529 161.351 147.584Z" fill="#455A64"/>
<path d="M181.919 161.99C181.919 161.99 182.036 161.936 182.231 161.78C182.527 161.558 182.79 161.295 183.011 161C183.805 159.921 184.286 158.645 184.4 157.31C184.574 155.354 184.349 153.382 183.737 151.515C183.144 149.409 182.231 147.178 181.88 144.745C181.525 142.463 181.977 140.129 183.16 138.146C184.117 136.519 185.534 135.212 187.231 134.386C188.381 133.826 189.623 133.48 190.897 133.364C191.372 133.357 191.846 133.323 192.317 133.263C191.852 133.126 191.365 133.076 190.882 133.115C189.557 133.138 188.251 133.433 187.044 133.981C185.223 134.79 183.692 136.134 182.653 137.834C181.368 139.934 180.87 142.421 181.249 144.854C181.615 147.404 182.559 149.643 183.175 151.702C183.795 153.496 184.06 155.392 183.955 157.287C183.895 158.562 183.502 159.799 182.816 160.875C182.278 161.616 181.873 161.944 181.919 161.99Z" fill="#455A64"/>
<path d="M234 147.209C240.115 133.068 231.73 124.457 226.27 121.368C223.018 119.527 219.149 119.137 215.42 119.028C211.728 118.85 208.029 119.188 204.43 120.034C200.818 120.89 197.519 122.748 194.914 125.393C190.445 130.182 189.454 137.272 189.844 143.809C190.328 151.538 192.554 159.058 196.357 165.805C196.778 166.709 197.439 167.48 198.268 168.035C198.691 168.295 199.195 168.389 199.683 168.3C200.171 168.211 200.609 167.944 200.912 167.552" fill="#263238"/>
<path d="M223.517 182.52L223.291 175.079C223.291 175.079 231.988 173.636 233.789 162.287C234.686 156.64 234.406 147.389 233.93 139.823C233.829 138.205 233.401 136.625 232.671 135.178C231.942 133.731 230.928 132.447 229.688 131.403C228.449 130.359 227.011 129.577 225.461 129.104C223.911 128.632 222.281 128.478 220.67 128.653L200.99 130.736C199.996 130.839 199.076 131.313 198.414 132.063C197.753 132.813 197.397 133.784 197.418 134.784L200.031 183.495C200.183 186.494 201.483 189.32 203.661 191.388C205.838 193.455 208.728 194.606 211.731 194.602C213.307 194.615 214.87 194.308 216.325 193.702C217.78 193.095 219.098 192.201 220.198 191.072C221.299 189.944 222.16 188.605 222.731 187.135C223.301 185.665 223.568 184.096 223.517 182.52Z" fill="#B78876"/>
<path d="M231.964 146.234C231.967 146.614 231.822 146.98 231.56 147.255C231.298 147.53 230.94 147.692 230.56 147.709C230.374 147.722 230.188 147.699 230.011 147.64C229.835 147.581 229.672 147.487 229.531 147.365C229.391 147.242 229.277 147.093 229.195 146.925C229.113 146.758 229.066 146.576 229.055 146.39C229.052 146.011 229.198 145.647 229.46 145.373C229.722 145.099 230.08 144.938 230.459 144.924C230.644 144.909 230.83 144.931 231.007 144.99C231.184 145.048 231.347 145.141 231.487 145.263C231.627 145.385 231.742 145.533 231.824 145.7C231.906 145.867 231.953 146.049 231.964 146.234Z" fill="#263238"/>
<path d="M231.925 144.604C231.738 144.791 230.638 143.972 229.07 143.98C227.503 143.988 226.356 144.76 226.192 144.573C226.028 144.386 226.286 144.144 226.793 143.793C227.478 143.315 228.297 143.064 229.133 143.075C229.945 143.074 230.738 143.33 231.395 143.809C231.847 144.175 232.011 144.518 231.925 144.604Z" fill="#263238"/>
<path d="M216.271 146.64C216.273 147.02 216.128 147.385 215.866 147.66C215.604 147.935 215.246 148.098 214.867 148.114C214.681 148.128 214.494 148.105 214.318 148.046C214.141 147.987 213.978 147.893 213.838 147.77C213.698 147.648 213.583 147.498 213.502 147.331C213.42 147.164 213.372 146.982 213.361 146.796C213.359 146.417 213.504 146.052 213.766 145.778C214.028 145.505 214.387 145.344 214.765 145.33C214.95 145.316 215.136 145.339 215.312 145.397C215.488 145.456 215.651 145.549 215.791 145.671C215.931 145.793 216.046 145.941 216.128 146.107C216.21 146.274 216.259 146.455 216.271 146.64Z" fill="#263238"/>
<path d="M216.528 144.893C216.349 145.08 215.241 144.269 213.681 144.269C212.121 144.269 210.967 145.049 210.795 144.869C210.623 144.69 210.896 144.44 211.396 144.089C212.082 143.614 212.901 143.366 213.736 143.38C214.55 143.381 215.344 143.637 216.005 144.113C216.45 144.464 216.614 144.807 216.528 144.893Z" fill="#263238"/>
<path d="M222.214 156.507C223.039 156.246 223.893 156.091 224.757 156.047C225.155 156.008 225.537 155.93 225.599 155.657C225.635 155.244 225.542 154.83 225.334 154.471L224.149 151.421C222.511 147.085 221.317 143.52 221.497 143.458C221.676 143.395 223.142 146.858 224.788 151.187C225.178 152.264 225.568 153.278 225.919 154.253C226.167 154.733 226.242 155.284 226.13 155.813C226.073 155.955 225.983 156.082 225.868 156.184C225.753 156.286 225.615 156.359 225.467 156.398C225.246 156.46 225.018 156.491 224.788 156.491C223.934 156.602 223.07 156.608 222.214 156.507Z" fill="#263238"/>
<path d="M223.291 175.04C217.948 175.12 212.688 173.716 208.096 170.984C208.096 170.984 211.786 178.784 223.142 177.715L223.291 175.04Z" fill="#AA6550"/>
<path d="M221.52 160.282C221.221 159.906 220.832 159.612 220.389 159.428C219.945 159.244 219.462 159.175 218.985 159.229C218.639 159.262 218.304 159.364 217.999 159.529C217.693 159.694 217.424 159.918 217.207 160.189C216.997 160.449 216.873 160.768 216.851 161.101C216.828 161.434 216.909 161.767 217.082 162.053C217.335 162.334 217.666 162.534 218.032 162.627C218.399 162.72 218.785 162.702 219.141 162.575C219.879 162.31 220.558 161.902 221.138 161.374C221.317 161.251 221.47 161.095 221.59 160.914C221.648 160.827 221.678 160.726 221.678 160.621C221.678 160.517 221.648 160.416 221.59 160.329" fill="#AA6550"/>
<path d="M217.62 157.56C217.87 157.56 217.877 159.245 219.328 160.446C220.779 161.647 222.596 161.468 222.612 161.71C222.612 161.811 222.206 162.037 221.442 162.061C220.445 162.072 219.476 161.733 218.704 161.101C217.962 160.5 217.486 159.632 217.378 158.683C217.3 158.005 217.487 157.56 217.62 157.56Z" fill="#263238"/>
<path d="M217.23 142.147C217.082 142.576 215.514 142.373 213.681 142.6C211.848 142.826 210.35 143.317 210.109 142.935C209.999 142.756 210.257 142.35 210.889 141.944C211.684 141.429 212.59 141.111 213.533 141.016C214.474 140.9 215.429 141.012 216.317 141.344C216.957 141.617 217.3 141.96 217.23 142.147Z" fill="#263238"/>
<path d="M231.348 140.065C231.067 140.423 229.991 140.065 228.696 140.065C227.401 140.065 226.301 140.299 226.044 139.924C225.935 139.745 226.106 139.394 226.59 139.051C227.229 138.637 227.982 138.435 228.743 138.473C229.504 138.485 230.243 138.733 230.857 139.183C231.317 139.526 231.465 139.893 231.348 140.065Z" fill="#263238"/>
<path d="M233.93 139.784C231.949 130.112 229.25 133.942 226.2 129.324C221.785 133.793 211.622 138.941 205.421 139.955C204.777 140.003 204.154 140.204 203.603 140.54C202.652 141.25 202.574 142.623 202.574 143.816C202.698 147.178 202.42 150.543 201.747 153.839C201.069 157.155 199.376 160.178 196.903 162.49C193.159 154.604 192.785 145.431 194.462 136.859C195.148 133.357 196.303 129.691 199.095 127.499C201.092 125.939 203.666 125.268 206.177 124.808C212.378 123.669 218.938 123.396 224.843 125.588C230.747 127.78 235.334 130.525 236.122 136.781" fill="#263238"/>
<path d="M191.045 132.99C191.441 133.27 191.867 133.503 192.317 133.684C192.82 133.935 193.341 134.146 193.877 134.316L194.875 134.667L196.03 134.956C197.933 135.408 199.877 135.669 201.833 135.736C206.636 135.915 211.425 135.119 215.912 133.396C216.926 132.943 217.909 132.577 218.767 132.085L220.015 131.414L221.122 130.705C221.756 130.3 222.36 129.851 222.932 129.363L223.649 128.786L224.195 128.232C224.551 127.907 224.873 127.546 225.155 127.156C225.053 127.046 223.673 128.591 220.873 130.322L219.773 130.985L218.525 131.609C217.675 132.077 216.7 132.389 215.701 132.842C213.487 133.648 211.206 134.253 208.884 134.651C206.563 135.022 204.214 135.192 201.864 135.158C199.94 135.114 198.024 134.898 196.139 134.511C192.925 133.84 191.1 132.865 191.045 132.99Z" fill="#455A64"/>
<path d="M194.259 125.346C194.551 125.644 194.879 125.906 195.234 126.126C195.632 126.422 196.055 126.683 196.498 126.906L197.317 127.351L198.276 127.756C201.829 129.129 205.613 129.805 209.422 129.745C213.209 129.753 216.985 129.332 220.678 128.489C222.097 128.17 223.228 127.85 223.993 127.592C224.403 127.494 224.8 127.342 225.17 127.14C225.17 127.039 223.415 127.514 220.592 128.045C216.91 128.749 213.17 129.104 209.422 129.106C205.686 129.159 201.97 128.56 198.44 127.335C197.013 126.743 195.618 126.08 194.259 125.346Z" fill="#455A64"/>
<path d="M229.133 122.881C229.133 122.811 228.743 122.733 228.134 122.881C227.344 123.115 226.641 123.579 226.116 124.214C225.591 124.849 225.267 125.626 225.186 126.446C225.147 127.07 225.295 127.436 225.373 127.429C225.451 127.421 225.482 125.931 226.606 124.621C227.729 123.31 229.164 123.061 229.133 122.881Z" fill="#455A64"/>
<path d="M170.508 135.104C170.426 134.947 170.311 134.809 170.173 134.698C169.778 134.355 169.288 134.14 168.769 134.082C167.95 133.984 167.122 134.174 166.429 134.62C165.953 134.922 165.572 135.35 165.328 135.858C165.084 136.365 164.987 136.931 165.048 137.491C165.123 138.164 165.36 138.808 165.739 139.37C166.118 139.931 166.628 140.391 167.224 140.712C167.933 141.043 168.718 141.174 169.495 141.093C170.273 141.012 171.014 140.721 171.639 140.252C172.331 139.772 172.892 139.125 173.269 138.372C173.628 137.586 173.832 136.739 173.87 135.876C173.987 134.16 173.69 132.428 174.002 130.744C174.333 129.155 175.064 127.677 176.124 126.449C177.184 125.221 178.54 124.283 180.063 123.724C181.318 123.294 182.653 123.156 183.969 123.318C185.285 123.48 186.547 123.939 187.66 124.66C189.197 125.62 190.439 126.985 191.248 128.606C191.81 129.761 191.927 130.486 192.028 130.471C192.037 130.294 192.016 130.117 191.966 129.948C191.865 129.452 191.711 128.968 191.506 128.505C190.752 126.78 189.51 125.314 187.933 124.285C186.846 123.565 185.626 123.069 184.345 122.827C182.858 122.556 181.327 122.674 179.899 123.17C178.267 123.746 176.812 124.734 175.674 126.037C174.535 127.341 173.753 128.916 173.402 130.611C173.074 132.452 173.402 134.199 173.277 135.821C173.25 136.603 173.069 137.371 172.747 138.083C172.424 138.75 171.939 139.324 171.335 139.753C170.796 140.167 170.156 140.43 169.481 140.514C168.806 140.598 168.121 140.499 167.497 140.228C166.969 139.953 166.515 139.555 166.173 139.068C165.831 138.58 165.611 138.018 165.532 137.428C165.466 136.944 165.537 136.452 165.735 136.005C165.934 135.559 166.252 135.177 166.655 134.901C167.282 134.466 168.039 134.26 168.8 134.316C169.437 134.397 170.033 134.672 170.508 135.104Z" fill="#263238"/>
<path d="M200.312 140.221C200.698 140.31 201.095 140.342 201.49 140.314C202.27 140.314 203.354 140.314 204.719 140.314C208.291 140.255 211.832 139.644 215.218 138.505C218.64 137.315 221.628 135.128 223.798 132.226C224.433 131.342 224.944 130.377 225.319 129.355C225.476 128.988 225.576 128.599 225.615 128.201C225.006 129.519 224.275 130.778 223.431 131.96C221.23 134.689 218.309 136.748 214.999 137.904C211.668 139.018 208.203 139.679 204.695 139.87C203.229 139.906 201.765 140.023 200.312 140.221Z" fill="#263238"/>
<path d="M184.205 167.942C184.205 167.942 184.244 168.402 184.743 169.018C185.11 169.445 185.56 169.792 186.066 170.038C186.571 170.285 187.122 170.426 187.684 170.453C189.366 170.499 190.998 169.883 192.231 168.737C193.009 168.068 193.505 167.129 193.619 166.109C193.681 165.541 193.573 164.968 193.309 164.461C193.046 163.954 192.638 163.537 192.137 163.262C191.597 163.011 190.981 162.982 190.42 163.18C189.858 163.378 189.397 163.788 189.134 164.323C189.03 164.59 188.987 164.877 189.007 165.163C189.027 165.449 189.111 165.726 189.251 165.976C189.497 166.444 189.888 166.82 190.367 167.045C191.227 167.406 192.193 167.423 193.066 167.092C193.804 166.835 194.47 166.404 195.008 165.836C195.796 165.039 196.303 164.006 196.451 162.895C196.534 162.498 196.51 162.086 196.381 161.702C196.326 161.702 196.381 162.131 196.209 162.856C195.978 163.873 195.451 164.798 194.696 165.516C194.189 166.01 193.571 166.377 192.894 166.585C192.155 166.847 191.345 166.822 190.624 166.514C190.261 166.356 189.968 166.07 189.8 165.711C189.632 165.353 189.601 164.945 189.712 164.564C189.914 164.194 190.249 163.913 190.65 163.778C191.05 163.644 191.487 163.665 191.872 163.839C192.255 164.062 192.565 164.392 192.764 164.788C192.963 165.184 193.044 165.629 192.995 166.07C192.892 166.936 192.476 167.735 191.825 168.316C190.711 169.377 189.238 169.979 187.699 170.001C186.662 169.984 185.669 169.575 184.922 168.854C184.408 168.324 184.259 167.918 184.205 167.942Z" fill="#263238"/>
<path d="M249.28 305.955C249.28 306.064 220.966 306.158 186.046 306.158C151.125 306.158 122.803 306.064 122.803 305.955C122.803 305.846 151.109 305.752 186.046 305.752C220.982 305.752 249.28 305.846 249.28 305.955Z" fill="#455A64"/>
<path d="M83.6316 260.676C84.9882 260.897 86.286 261.391 87.4468 262.126C88.6077 262.862 89.6076 263.826 90.3864 264.958C91.9315 267.233 92.9348 269.832 93.3192 272.555C94.2084 277.781 92.8122 283.725 90.8934 288.662C85.5504 286.182 82.68 280.02 81.4398 276.736C79.4586 271.619 78.9906 261.136 83.6316 260.676Z" fill="#8600F0"/>
<path d="M98.28 295.62C97.5689 294.258 97.2311 292.733 97.301 291.198C97.3709 289.664 97.8459 288.175 98.6778 286.884C99.5315 285.61 100.629 284.517 101.908 283.67C103.187 282.822 104.62 282.237 106.127 281.947C107.515 281.658 109.091 281.635 110.191 282.524C110.681 282.972 111.043 283.543 111.238 284.178C111.433 284.813 111.454 285.489 111.298 286.135C110.974 287.424 110.311 288.604 109.379 289.552C106.345 292.898 102.804 295.62 98.28 295.62Z" fill="#8600F0"/>
<path d="M97.2972 312.679C97.2116 312.323 97.1619 311.96 97.149 311.594C97.071 310.814 96.9696 309.832 96.8448 308.638C96.4146 305.37 96.5174 302.053 97.149 298.818C97.8349 295.57 99.372 292.563 101.603 290.105C102.288 289.377 103.058 288.733 103.896 288.187C104.122 288.035 104.356 287.897 104.598 287.773C104.678 287.722 104.764 287.683 104.855 287.656C103.753 288.431 102.731 289.314 101.806 290.293C99.6796 292.747 98.2068 295.698 97.5234 298.873C96.6576 302.593 96.9774 306.095 97.1178 308.584C97.2036 309.832 97.266 310.853 97.2972 311.555C97.3294 311.929 97.3294 312.305 97.2972 312.679Z" fill="#263238"/>
<path d="M84.7002 268.601C84.7715 268.741 84.8314 268.888 84.8796 269.038C84.9966 269.373 85.1526 269.818 85.3398 270.317C85.722 271.432 86.268 273.055 86.8998 275.067C88.2024 279.084 89.9262 284.653 91.6968 290.854C93.4674 297.055 94.9338 302.702 95.94 306.797C96.447 308.849 96.837 310.51 97.0944 311.665C97.2192 312.211 97.3128 312.647 97.383 312.991C97.4269 313.146 97.453 313.305 97.461 313.466C97.4004 313.32 97.3509 313.168 97.3128 313.014L96.954 311.704C96.642 310.51 96.174 308.872 95.6748 306.868C94.6062 302.788 93.093 297.157 91.3302 290.956C89.5674 284.755 87.8748 279.185 86.6502 275.145C86.0418 273.164 85.5504 271.541 85.1838 270.364C85.0278 269.833 84.903 269.396 84.8016 269.061C84.7485 268.913 84.7145 268.758 84.7002 268.601Z" fill="#263238"/>
<path d="M91.7826 300.799C90.3824 297.883 88.3078 295.343 85.7307 293.389C83.1535 291.434 80.1479 290.121 76.9626 289.559C75.3402 289.286 73.3512 289.38 72.4854 290.776C71.6196 292.172 72.4386 294.005 73.437 295.316C75.5745 298.008 78.4607 300.007 81.7322 301.062C85.0037 302.117 88.5142 302.18 91.8216 301.244" fill="#8600F0"/>
<path d="M79.0296 294.154C79.3709 294.167 79.7103 294.211 80.0436 294.286C80.4404 294.348 80.8336 294.432 81.2214 294.536C81.6738 294.668 82.2042 294.762 82.7814 294.973C83.3992 295.171 84.0059 295.403 84.5988 295.667C85.2817 295.955 85.9483 296.281 86.5956 296.642C88.0809 297.483 89.4675 298.488 90.7296 299.637C91.966 300.809 93.065 302.117 94.0056 303.537C94.412 304.162 94.7818 304.811 95.1132 305.479C95.4116 306.052 95.6722 306.643 95.8932 307.25C96.0924 307.744 96.2643 308.25 96.408 308.763C96.5344 309.143 96.636 309.532 96.7122 309.925C96.7994 310.257 96.8568 310.597 96.8838 310.939C96.798 310.939 96.5406 309.512 95.6436 307.351C95.4006 306.759 95.1246 306.181 94.8168 305.62C94.4801 304.97 94.1078 304.34 93.7014 303.732C91.8382 300.93 89.3427 298.606 86.4162 296.946C85.7822 296.578 85.1286 296.245 84.4584 295.948C83.8422 295.643 83.2338 295.433 82.6878 295.222C80.4648 294.45 79.014 294.239 79.0296 294.154Z" fill="#263238"/>
<path d="M273.32 58.5C267.371 58.0991 261.419 59.2413 256.041 61.816C250.663 64.3907 246.041 68.3106 242.623 73.196C239.204 78.0814 237.105 83.7668 236.53 89.7015C235.954 95.6362 236.92 101.619 239.335 107.071C243.36 116.173 251.16 123.24 254.6 132.6C256.94 138.98 257.143 146.016 259.553 152.373C264.506 165.446 279.63 173.761 293.319 170.945C301.54 169.26 308.919 164.12 317.312 163.597C326.297 163.036 336.531 167.606 343.652 162.084C348.629 158.223 349.471 150.813 347.669 144.784C345.868 138.754 341.983 133.606 338.793 128.177C335.603 122.749 333.005 116.477 334.191 110.292C335.26 104.684 339.238 100.152 341.734 95.0118C344.088 90.1789 345.128 84.8112 344.749 79.4488C344.371 74.0863 342.587 68.918 339.577 64.4637C336.567 60.0094 332.438 56.4262 327.604 54.0745C322.769 51.7227 317.401 50.6853 312.039 51.0666C304.894 51.5736 298.194 54.5532 291.322 56.5266C284.45 58.5 281.011 58.7652 273.32 58.5Z" fill="#F5F5F5"/>
<path d="M290.456 81.4242C290.456 81.4242 277.235 81.2916 272.688 92.781C268.141 104.27 273.351 109.816 275.387 113.194C277.423 116.571 282.89 123.919 282.937 130.845L300.698 130.728C301.619 124.597 303.739 118.708 306.938 113.396C312.25 104.551 311.618 98.1006 310.167 94.2474C308.716 90.3942 303.982 80.8548 290.456 81.4242Z" fill="#8600F0"/>
<path d="M294.489 130.26L294.442 129.979C294.442 129.784 294.372 129.519 294.317 129.199C294.208 128.466 294.06 127.413 293.865 126.079C293.498 123.357 292.952 119.402 292.609 114.488C292.523 113.256 292.453 111.969 292.414 110.588C292.375 109.208 292.344 107.843 292.414 106.392C292.475 104.878 292.828 103.389 293.452 102.008C294.132 100.524 295.334 99.3413 296.829 98.6856C297.633 98.3689 298.511 98.2909 299.357 98.4611C300.204 98.6313 300.984 99.0424 301.603 99.645C301.923 99.9586 302.177 100.334 302.348 100.748C302.52 101.162 302.606 101.607 302.601 102.055C302.573 102.967 302.25 103.846 301.681 104.559C301.119 105.286 300.388 105.865 299.551 106.244C298.719 106.633 297.841 106.916 296.938 107.086C295.108 107.449 293.25 107.648 291.385 107.679C289.523 107.73 287.659 107.623 285.815 107.359C284.906 107.216 284.02 106.953 283.179 106.579C282.349 106.212 281.601 105.681 280.979 105.019C280.363 104.364 279.933 103.556 279.731 102.679C279.546 101.8 279.664 100.885 280.067 100.082C280.447 99.2839 281.108 98.6537 281.923 98.3112C282.327 98.1654 282.757 98.1026 283.186 98.1267C283.614 98.1509 284.034 98.2614 284.419 98.4516C285.164 98.8182 285.801 99.3719 286.268 100.058C286.701 100.705 287.016 101.423 287.196 102.18C287.456 103.658 287.589 105.156 287.594 106.657C287.719 109.551 287.836 112.242 287.937 114.707C288.14 119.613 288.296 123.591 288.413 126.352C288.46 127.725 288.499 128.786 288.53 129.519C288.53 129.878 288.53 130.151 288.53 130.346C288.53 130.541 288.53 130.627 288.53 130.627V130.346C288.53 130.151 288.53 129.878 288.483 129.566C288.483 128.833 288.382 127.764 288.311 126.399C288.179 123.638 287.992 119.66 287.75 114.754C287.641 112.297 287.508 109.598 287.375 106.712C287.366 105.224 287.231 103.739 286.97 102.274C286.809 101.521 286.51 100.804 286.088 100.16C285.647 99.5096 285.041 98.9876 284.333 98.6466C283.979 98.4694 283.592 98.3662 283.197 98.3434C282.801 98.3206 282.405 98.3787 282.032 98.514C281.28 98.8331 280.671 99.4193 280.324 100.16C279.946 100.909 279.836 101.765 280.012 102.586C280.203 103.425 280.615 104.198 281.206 104.824C282.462 106.094 284.112 106.903 285.886 107.117C287.711 107.382 289.556 107.489 291.4 107.437C293.247 107.406 295.087 107.21 296.899 106.852C297.782 106.686 298.642 106.41 299.458 106.033C300.249 105.679 300.946 105.145 301.493 104.473C302.024 103.805 302.327 102.985 302.359 102.133C302.365 101.718 302.286 101.307 302.128 100.923C301.97 100.54 301.735 100.193 301.439 99.9024C300.856 99.3356 300.122 98.9489 299.326 98.7884C298.529 98.6279 297.703 98.7006 296.946 98.9976C295.506 99.6272 294.346 100.762 293.686 102.188C293.075 103.543 292.728 105.001 292.664 106.486C292.57 107.921 292.609 109.317 292.664 110.659C292.718 112 292.765 113.287 292.835 114.512C293.155 119.426 293.678 123.373 294.013 126.11L294.411 129.23C294.453 129.579 294.484 129.852 294.505 130.049C294.502 130.12 294.497 130.19 294.489 130.26Z" fill="#263238"/>
<path d="M282.929 130.588L300.752 130.307L300.947 141.57L295.768 147.748L288.935 148.036L283.148 141.125L282.929 130.588Z" fill="#E0E0E0"/>
<path d="M295.768 147.748C295.304 147.273 294.748 146.9 294.133 146.65C293.518 146.4 292.859 146.28 292.196 146.297C291.541 146.337 290.901 146.515 290.32 146.819C289.738 147.123 289.226 147.545 288.818 148.06L295.768 147.748Z" fill="#455A64"/>
<path d="M300.472 140.642C300.246 140.576 300.029 140.485 299.824 140.369C299.419 140.174 298.818 139.916 298.061 139.643C294.073 138.223 289.702 138.315 285.776 139.901C285.035 140.205 284.443 140.486 284.045 140.681C283.841 140.796 283.63 140.898 283.413 140.985C283.59 140.831 283.783 140.697 283.99 140.587C284.541 140.254 285.115 139.96 285.706 139.706C289.651 137.993 294.111 137.901 298.124 139.448C298.722 139.672 299.305 139.932 299.871 140.228C300.082 140.349 300.283 140.488 300.472 140.642Z" fill="#263238"/>
<path d="M300.495 137.912C300.273 137.833 300.057 137.739 299.848 137.631C299.442 137.444 298.841 137.179 298.085 136.913C296.106 136.217 294.02 135.879 291.923 135.915C289.823 135.962 287.749 136.387 285.8 137.171C285.02 137.467 284.466 137.756 284.068 137.951C283.87 138.076 283.658 138.178 283.436 138.255C283.618 138.107 283.811 137.974 284.014 137.857C284.567 137.53 285.14 137.238 285.73 136.984C289.675 135.271 294.135 135.179 298.147 136.726C298.748 136.943 299.332 137.204 299.894 137.506C300.11 137.617 300.312 137.753 300.495 137.912Z" fill="#263238"/>
<path d="M300.355 135.307C300.132 135.238 299.918 135.147 299.715 135.034C299.302 134.839 298.701 134.581 297.944 134.308C295.966 133.61 293.88 133.272 291.782 133.31C289.686 133.364 287.616 133.789 285.667 134.566C284.887 134.87 284.333 135.151 283.936 135.346C283.731 135.464 283.517 135.566 283.296 135.65C283.475 135.495 283.671 135.361 283.881 135.252C284.43 134.92 285.001 134.626 285.589 134.371C289.537 132.661 293.999 132.568 298.015 134.113C298.613 134.337 299.196 134.597 299.762 134.893C299.972 135.012 300.17 135.151 300.355 135.307Z" fill="#263238"/>
<g opacity="0.2">
<path d="M280.8 113.217C280.558 113.49 279.942 113.443 279.053 112.983C277.834 112.291 276.771 111.353 275.933 110.23C274.652 108.564 273.721 106.656 273.195 104.621C272.511 102.072 272.449 99.3952 273.014 96.8165C273.578 94.2378 274.753 91.8321 276.44 89.8014C277.764 88.169 279.407 86.8234 281.268 85.8468C282.494 85.1752 283.846 84.7661 285.238 84.6456C286.229 84.5988 286.798 84.8094 286.923 85.1604C287.149 85.9404 285.488 86.9856 283.507 88.998C282.364 90.1369 281.356 91.4037 280.504 92.7732C279.5 94.3776 278.772 96.1388 278.351 97.9836C277.967 99.8357 277.891 101.738 278.125 103.615C278.332 105.214 278.719 106.784 279.279 108.295C280.246 110.955 281.315 112.624 280.8 113.217Z" fill="white"/>
</g>
<g opacity="0.2">
<path d="M286.494 119.519C286.443 120 286.252 120.456 285.947 120.831C285.641 121.206 285.233 121.484 284.772 121.631C284.312 121.779 283.818 121.789 283.352 121.661C282.885 121.533 282.466 121.272 282.145 120.91C281.824 120.548 281.615 120.101 281.544 119.623C281.472 119.144 281.541 118.655 281.742 118.215C281.944 117.776 282.269 117.404 282.677 117.145C283.086 116.886 283.561 116.752 284.045 116.758C284.734 116.804 285.377 117.12 285.836 117.637C286.294 118.153 286.53 118.83 286.494 119.519Z" fill="white"/>
</g>
<path d="M269.139 85.5894C269.092 85.644 266.799 84.0294 264.085 81.939C261.37 79.8486 259.155 78.1248 259.194 78.039C259.233 77.9532 261.534 79.599 264.248 81.6894C266.963 83.7798 269.186 85.527 269.139 85.5894Z" fill="#263238"/>
<path d="M272.875 80.6364C272.104 79.894 271.397 79.0877 270.761 78.2262C270.055 77.4246 269.416 76.5663 268.85 75.66C269.625 76.4012 270.335 77.2075 270.972 78.0702C271.68 78.8689 272.316 79.7275 272.875 80.6364Z" fill="#263238"/>
<path d="M281.011 79.4976C280.94 79.4976 280.036 77.0094 278.99 73.8894C277.945 70.7694 277.157 68.211 277.228 68.1876C277.298 68.1642 278.203 70.6758 279.248 73.7958C280.293 76.9158 281.081 79.4742 281.011 79.4976Z" fill="#263238"/>
<path d="M291.002 77.337C290.74 76.4086 290.563 75.4583 290.472 74.4978C290.293 73.549 290.207 72.5851 290.215 71.6196C290.478 72.5478 290.655 73.4982 290.745 74.4588C290.924 75.4076 291.01 76.3715 291.002 77.337Z" fill="#263238"/>
<path d="M300.807 80.7222C300.729 80.7222 301.486 77.7348 302.492 74.0922C303.498 70.4496 304.379 67.509 304.45 67.5324C304.52 67.5558 303.763 70.5198 302.757 74.1624C301.751 77.805 300.877 80.7456 300.807 80.7222Z" fill="#263238"/>
<path d="M309.067 84.8016C309.543 83.8317 310.099 82.903 310.729 82.0248C311.28 81.0974 311.911 80.2204 312.616 79.404C312.14 80.3739 311.584 81.3027 310.955 82.1808C310.404 83.1082 309.772 83.9852 309.067 84.8016Z" fill="#263238"/>
<path d="M322.14 83.0934C322.179 83.1558 319.886 84.8874 317.008 86.9934C314.129 89.0994 311.766 90.7062 311.719 90.6438C311.672 90.5814 313.973 88.8498 316.852 86.7438C319.73 84.6378 322.14 83.031 322.14 83.0934Z" fill="#263238"/>
</svg>
